<?xml version="1.0" encoding="UTF-8" standalone="no"?>
<!-- Created with Inkscape (http://www.inkscape.org/) -->

<svg
   xmlns:dc="http://purl.org/dc/elements/1.1/"
   xmlns:cc="http://creativecommons.org/ns#"
   xmlns:rdf="http://www.w3.org/1999/02/22-rdf-syntax-ns#"
   xmlns:svg="http://www.w3.org/2000/svg"
   xmlns="http://www.w3.org/2000/svg"
   xmlns:sodipodi="http://sodipodi.sourceforge.net/DTD/sodipodi-0.dtd"
   xmlns:inkscape="http://www.inkscape.org/namespaces/inkscape"
   width="500mm"
   height="500mm"
   viewBox="0 0 500 500"
   version="1.1"
   id="svg5052"
   inkscape:version="0.92.1 r15371"
   sodipodi:docname="amazinggrace.svg">
  <defs
     id="defs5046" />
  <sodipodi:namedview
     id="base"
     pagecolor="#ffffff"
     bordercolor="#666666"
     borderopacity="1.0"
     inkscape:pageopacity="0.0"
     inkscape:pageshadow="2"
     inkscape:zoom="0.29792083"
     inkscape:cx="944.88189"
     inkscape:cy="944.88189"
     inkscape:document-units="mm"
     inkscape:current-layer="layer1"
     showgrid="false"
     inkscape:window-width="1366"
     inkscape:window-height="715"
     inkscape:window-x="-8"
     inkscape:window-y="-8"
     inkscape:window-maximized="1" />
  <metadata
     id="metadata5049">
    <rdf:RDF>
      <cc:Work
         rdf:about="">
        <dc:format>image/svg+xml</dc:format>
        <dc:type
           rdf:resource="http://purl.org/dc/dcmitype/StillImage" />
        <dc:title></dc:title>
      </cc:Work>
    </rdf:RDF>
  </metadata>
  <g
     inkscape:label="Layer 1"
     inkscape:groupmode="layer"
     id="layer1"
     transform="translate(0,203)">
    <path
       inkscape:connector-curvature="0"
       id="path6510"
       d="m 249.42904,-196.94614 c -3.00115,0 -5.43374,2.9554 -5.43374,6.60066 0,2.22206 1.87738,5.88494 2.59021,10.27234 0.59007,3.62963 1.01801,6.40889 2.84353,6.40889 1.89098,0 2.39063,-3.21027 2.79318,-6.1286 0.61306,-4.44479 2.64109,-8.28719 2.64109,-10.55263 0,-3.64526 -2.43312,-6.60066 -5.43427,-6.60066 z m -14.65209,9.35569 c -1.53517,0.0436 -3.04333,0.88715 -4.06692,2.46457 -1.8197,2.80444 -1.05628,7.1853 1.86992,7.56767 6.46538,0.84393 11.51286,9.73566 13.33257,6.93131 v -5.2e-4 c 1.81971,-2.8043 -5.40619,-13.37585 -7.71926,-15.58197 -1.01203,-0.96513 -2.22229,-1.41498 -3.41631,-1.38108 z m 29.04833,0 c -1.10991,0.0329 -2.22073,0.48488 -3.16045,1.38107 -2.31314,2.20612 -9.53838,12.77767 -7.71875,15.58198 v 5.1e-4 c 1.81971,2.80435 6.86662,-6.08738 13.33206,-6.9313 2.92621,-0.38238 3.68962,-4.76323 1.86992,-7.56768 -1.08047,-1.66505 -2.70062,-2.5126 -4.32278,-2.46457 z m -36.54835,12.01814 c -4.4662,0 -8.08652,3.42883 -8.08652,7.65872 7e-5,4.22995 3.6204,7.65923 8.08652,7.65923 3.07503,0 8.06239,0.52601 13.05636,-0.52698 2.25912,-0.47638 7.30977,-1.27578 7.30977,-2.59327 0,-4.22999 -15.9,-12.1977 -20.36613,-12.1977 z m 44.30424,0 c -4.46607,0 -20.36614,7.96771 -20.36614,12.1977 0,1.31749 5.05065,2.11689 7.30977,2.59327 4.99398,1.05299 9.98134,0.52698 13.05637,0.52698 4.46612,0 8.08701,-3.42928 8.08701,-7.65923 0,-4.22989 -3.62089,-7.65872 -8.08701,-7.65872 z m -6.41246,20.33713 c -1.75752,0 -2.34327,0.1643 -5.17483,0.1643 h -1.7575 -5.07767 -8.29916 c -7.71365,0 -19.43067,1.39532 -19.43067,14.03609 0.29351,8.94703 6.44428,10.50633 9.08051,10.50633 3.71037,0 7.90889,-2.7085 3.80799,-6.64849 0,1.14917 -1.46443,3.61166 -3.02665,3.61166 -1.65994,0 -2.53885,-3.0374 -2.53885,-6.4028 0,-3.36539 2.92953,-13.70747 10.44784,-13.70747 h 7.12766 l -7.32299,21.99798 c -0.97645,1.14917 -6.34704,6.73112 -8.78801,7.30571 -1.4646,0.32833 -1.26892,1.14916 -0.0976,1.80582 1.17162,0.65666 3.22174,3.28314 4.10049,5.49937 l -3.31967,10.01392 c -0.97637,0.82083 -1.95262,1.55991 -2.929,1.88823 -1.75755,0.57458 -2.44112,1.06713 -2.34349,1.55962 0,0.49251 0.58541,0.57431 1.56216,0.57431 1.36697,0 0.87892,-0.32811 4.49167,-0.3281 h 5.27249 l 2.929,-8.70102 c 3.61267,-8.1262 9.3736,-15.1852 13.27916,-15.1852 1.85527,0 2.24583,1.64162 2.24583,2.95494 0,8.29037 -8.59241,7.14121 -3.90566,9.02913 1.75748,0.73873 4.00338,0.6567 6.05384,-0.24621 l 0.68366,3.52924 c 0.39006,3.52956 -0.78171,5.66414 -4.394,6.81329 -1.75748,0.57458 -2.53883,0.98458 -2.53883,1.31291 0,0.4925 0.68396,0.82102 1.66034,0.82102 1.65985,0 2.05019,-0.32811 4.68649,-0.3281 h 2.44117 4.29582 0.87901 c 2.83156,0 2.34348,0.3281 3.808,0.3281 0.87874,0 1.17147,-0.32852 1.17147,-0.82102 0,-0.32829 -0.38996,-0.82046 -1.95229,-1.31291 -2.5387,-0.73874 -4.19851,-1.47781 -5.27251,-4.59696 l -1.75749,-8.53671 c 1.26933,-1.55958 2.05049,-3.61137 2.05049,-5.99178 0,-2.54457 -1.66013,-4.92521 -4.58933,-5.99227 l -3.31966,-15.67761 c -0.58623,-3.8579 0.48847,-6.07414 4.68699,-7.22329 1.95275,-0.4925 2.929,-0.90319 2.929,-1.23152 0,-0.49251 -0.87872,-0.82051 -1.85516,-0.82051 z m -10.05717,9.52152 3.12484,14.77469 c -3.51513,0.32833 -7.03035,2.79091 -10.05717,5.82798 z m -25.48398,48.253134 c -0.78151,0 -1.26921,0.246136 -1.36684,0.738607 0,0.410402 0.39012,0.902819 1.85517,1.395316 3.02697,0.984992 4.68657,1.806012 5.07717,7.141396 l -1.26917,15.185196 c -1.75764,1.969984 -5.66322,6.238397 -7.51833,6.730889 -0.68356,0.164146 -0.97668,0.492119 -0.97668,0.820505 0,0.32837 0.29374,0.57497 0.97668,0.739115 1.56215,0.492441 4.39351,3.365215 6.34632,5.499368 l -0.39015,5.253168 c -0.29351,5.253301 -2.1479,5.58159 -5.07717,6.566585 -1.46459,0.492437 -1.95279,0.984903 -1.85516,1.395316 0.098,0.492437 0.58609,0.739115 1.36683,0.739115 1.56222,0 0.97648,-0.246201 3.71033,-0.246201 h 7.42066 c 0.78149,0 1.36734,-0.574869 1.36734,-1.231523 0,-10.752853 1.17125,-21.259421 2.05,-31.848112 l 4.78466,33.079635 h 1.7575 3.51499 l 6.34684,-37.594196 2.63599,36.362673 c 0.098,0.656662 0.68398,1.231523 1.46501,1.231523 h 7.32299 c 2.83157,0 2.24577,0.246201 3.808,0.246201 0.7815,0 1.26918,-0.246678 1.26918,-0.739115 0.098,-0.410366 -0.29277,-0.902825 -1.75751,-1.395316 -2.92928,-0.984995 -4.68648,-1.313284 -4.88182,-6.566585 l -4.10152,-34.228241 c 0.48816,-5.335384 2.24569,-6.156404 5.27251,-7.141396 1.46467,-0.492469 1.95287,-0.9849 1.85515,-1.395316 0,-0.492471 -0.48796,-0.738607 -1.26914,-0.738607 -1.56216,0 -0.97644,0.246201 -3.808,0.246201 h -8.88568 l -6.93233,40.631029 -5.95617,-40.631029 h -10.34965 c -2.8315,0 -2.24579,-0.246201 -3.808,-0.246201 z m -62.4871,50.84741 c -0.9249,-0.0024 -1.78308,0.303578 -2.24075,1.098755 -0.68356,1.067082 -1.46474,2.544946 -2.34349,4.350763 -2.63631,-1.477486 -6.24893,-1.805822 -8.88516,-1.805822 -11.03344,0 -24.41002,9.685649 -25.58166,26.923046 -1.75755,1.805818 -3.90596,3.693831 -5.07766,4.022154 -0.68356,0.164224 -0.97617,0.492107 -0.97617,0.820505 0,0.328294 0.29253,0.57497 0.97617,0.739116 1.36704,0.410444 3.90567,2.8724928 5.8585,4.9245587 2.24578,9.9320226 8.98293,18.0582333 20.79749,18.0582333 4.29624,0 8.2994,-1.231051 11.03332,-3.693545 h 0.0981 3.41733 c 2.92927,0 2.34344,0.2462045 3.90567,0.2462045 0.87882,0 1.36687,-0.2461706 1.46449,-0.738608 0.19542,-1.7237431 -4.58893,-1.2312901 -5.27249,-3.3654458 v -9.19342 c 0.68356,-3.4474862 2.24595,-4.1859586 4.687,-5.0888636 1.36697,-0.4924375 1.85513,-1.0671201 1.7575,-1.5596211 0,-0.492437 -0.48857,-0.821012 -1.26968,-0.821012 -1.56222,0 -0.9765,0.328609 -3.808,0.328609 h -8.69033 c -2.83163,0 -2.24577,-0.328609 -3.80799,-0.328609 -0.78143,0 -1.17162,0.328559 -1.26917,0.821012 -0.098,0.492441 0.39007,1.0671138 1.7575,1.5596211 2.44105,0.902905 4.00345,1.6413774 4.68701,5.0888636 v 5.5817749 c 0,6.1562057 -4.68715,7.7156989 -8.88567,7.7156989 -7.71366,0 -13.08384,-10.1780968 -13.08384,-22.6546935 0,-15.349488 8.98315,-24.132414 23.23866,-24.132414 0.39006,0 0.87865,-1.77e-4 1.26917,0.0819 -1.65986,3.939979 -3.02667,8.536577 -3.02667,12.886968 0,2.708735 4.19825,5.827976 6.34633,5.827976 1.26934,0 1.95312,-0.656382 1.17201,-2.380126 -1.8552,-3.775809 -3.61286,-10.588832 5.27249,-22.737097 0.87267,-1.072208 -1.48528,-2.571186 -3.52008,-2.576479 z m 154.21581,0 c -0.92492,-0.0024 -1.78306,0.303578 -2.24074,1.098755 -0.68357,1.067082 -1.46426,2.544946 -2.343,4.350763 -2.63638,-1.477486 -6.24928,-1.805822 -8.88567,-1.805822 -11.03336,0 -24.40995,9.685641 -25.58166,26.923046 -1.75749,1.805818 -3.90543,3.693823 -5.07715,4.022154 -0.68357,0.164224 -0.97667,0.492114 -0.97667,0.820505 0,0.32837 0.29302,0.57497 0.97667,0.739116 1.36697,0.410444 3.90558,2.872485 5.85848,4.9245587 2.24573,9.9320226 8.98295,18.0582333 20.79752,18.0582333 7.71356,0 14.64597,-4.0220162 14.64597,-11.98405486 0,-6.07412364 -4.00329,-8.12620524 -9.27582,-8.12620524 -1.36705,0 -7.81134,1.5597718 -7.81134,6.238483 0,1.88790716 1.75765,-1.3953161 5.95618,-1.3953161 2.73393,0 5.17483,0.9848983 5.17483,4.1040538 0,6.1562057 -4.68664,7.7156989 -8.88516,7.7156989 -7.71359,0 -13.08384,-10.1780968 -13.08384,-22.6546935 0,-15.349488 8.98264,-24.132414 23.23814,-24.132414 0.39008,0 0.87917,-1.77e-4 1.26967,0.0819 -1.65984,3.939979 -3.02715,8.536577 -3.02715,12.886968 0,2.708735 4.19875,5.827976 6.34682,5.827976 1.26934,0 1.95261,-0.656382 1.17151,-2.380126 -1.85513,-3.775809 -3.61271,-10.588832 5.27248,-22.737097 0.87268,-1.072208 -1.48526,-2.571186 -3.52007,-2.576479 z m 68.16195,2.790124 c -4.22971,2.61e-4 -7.65873,3.620582 -7.65873,8.086529 0,3.07506 -0.52652,8.062905 0.52649,13.056867 0.47635,2.259128 1.27574,7.309771 2.59328,7.309771 4.22984,0 12.19768,-15.90051 12.19768,-20.366638 0,-4.465955 -3.4285,-8.086244 -7.65822,-8.086529 z m -277.33532,0.0031 c -4.22949,-8e-6 -7.65821,3.619805 -7.65821,8.08551 0,4.465532 7.96698,20.363359 12.19667,20.364604 1.31709,-0.0013 2.11656,-5.050138 2.59276,-7.308753 1.05293,-4.993496 0.5275,-9.981088 0.5275,-13.055851 0,-4.465698 -3.42916,-8.08551 -7.65872,-8.08551 z m 259.52481,0.06766 c -0.88427,-0.0021 -1.70263,0.285188 -2.12985,1.029065 -0.39007,0.738735 -0.97638,1.64147 -1.56218,2.790632 h -22.1643 c -7.71366,-0.08208 -19.43015,1.395498 -19.43015,13.954184 0.29272,8.94703 6.44423,10.588739 9.17815,10.588739 3.61275,0 7.81118,-2.872803 3.61267,-6.81279 0,1.231244 -1.36731,3.775445 -3.02718,3.775445 -1.56221,0 -2.44066,-3.11878 -2.44066,-6.484179 0,-3.365396 2.92902,-13.707981 10.44733,-13.707981 h 1.36684 v 23.96811 c -1.95282,2.134148 -5.17474,5.4994555 -6.83466,5.9098763 -0.68357,0.164224 -0.97668,0.4923124 -0.97668,0.7386079 0,0.3283697 0.29381,0.6568436 0.97668,0.8210129 1.65992,0.4103657 4.88184,3.7757205 6.83466,5.9098762 V 3.242871 c -0.2935,5.3353829 -2.05036,6.2384857 -5.07718,7.141396 -1.36703,0.49244 -1.85512,0.984898 -1.75748,1.395318 0,0.492438 0.48788,0.738606 1.26914,0.738606 1.56223,0 1.07401,-0.246203 3.808,-0.246203 h 7.42068 23.53166 V 7.4293268 c 0,-3.4474863 0.48782,-2.7907676 0.48782,-4.760762 0,-0.984992 -0.488,-1.5599385 -1.36682,-1.6420257 -0.78142,-0.0820742 -1.75726,0.4107773 -2.44066,2.2987365 -1.46467,3.9399783 -4.58929,6.3203827 -13.86516,6.3203827 -3.51513,0 -4.97951,-3.2015527 -4.97951,-6.4027902 V -11.121312 c 4.58913,0.574586 5.56526,2.0519379 6.63933,4.3502525 0.58548,1.3133253 1.17164,1.7235999 1.75751,1.6415205 0.58611,-0.082074 0.97664,-0.4923906 0.97667,-1.1491143 0,-1.3954125 -0.39017,-0.9027772 -0.39017,-3.4473426 v -5.7460801 c 0,-2.462486 0.39017,-1.969531 0.39017,-3.364936 0,-0.656661 -0.39048,-1.149621 -0.97667,-1.149621 -0.58548,-0.08208 -1.17174,0.328742 -1.75751,1.642025 -1.07407,2.298325 -2.0502,3.775682 -6.63933,4.350256 v -23.393803 h 14.15767 c -1.85526,4.104146 -3.80801,9.439535 -3.80801,14.446587 0,2.544574 4.00339,5.58196 6.05383,5.499878 1.17171,0 1.75725,-0.656768 1.07383,-2.216329 -1.75763,-3.693729 -3.51468,-10.096197 4.98002,-21.669883 0.87272,-1.015777 -1.39307,-2.419756 -3.3385,-2.424381 z m -181.4878,2.588178 c -7.71358,-0.08208 -19.333,1.395495 -19.333,13.954181 0.19542,8.947023 6.34649,10.588739 9.0805,10.588739 3.61259,0 7.81127,-2.872808 3.61266,-6.812787 0,1.231244 -1.36672,3.775948 -3.02666,3.775953 -1.56222,0 -2.3435,-3.119292 -2.3435,-6.484687 0,-3.3654 2.83185,-13.70798 10.35016,-13.707983 h 1.36684 v 23.968112 c -1.9529,2.134153 -5.17481,5.499963 -6.83467,5.9103835 -0.68355,0.1641462 -0.97666,0.4923105 -0.97666,0.7386085 0,0.3283669 0.29303,0.6568512 0.97666,0.8210126 1.65986,0.4103658 4.88177,3.7757283 6.83467,5.9098763 v 4.5145629 c -0.29274,5.3353908 -2.05023,6.2379751 -4.9795,7.1408877 -1.46459,0.4924374 -1.9528,0.9854135 -1.85517,1.3958235 0.0981,0.49244 0.58526,0.738608 1.36684,0.738608 1.56215,0 0.97647,-0.246201 3.71033,-0.246201 h 10.5455 c 2.83148,0 2.24527,0.246201 3.80749,0.246201 0.78149,0 1.26967,-0.246168 1.26967,-0.738608 0.098,-0.410365 -0.29352,-0.9033236 -1.7575,-1.3958235 C 199.0076,8.2498399 197.34749,7.3472556 196.9569,2.0118648 V -10.628904 c 12.10743,-1.641653 5.46801,23.147097 15.32966,23.147097 4.49149,0 7.323,-2.134106 7.323,-5.6636721 -10.34995,2.298325 -6.05381,-14.4466818 -13.27916,-19.3716549 7.22535,-2.626652 13.37683,-9.110926 13.37683,-19.535449 0,-8.536625 -8.39706,-8.947361 -14.74367,-9.111522 h -2.34349 -5.8585 z m 74.53879,1.47772 c -1.75759,0 -2.34319,0.164305 -5.17482,0.164305 h -1.7575 -5.07767 -8.29915 c -7.71359,0 -19.43067,1.395324 -19.43067,14.036081 0.2935,8.947031 6.4442,10.506842 9.08049,10.506842 3.71031,0 7.9089,-2.709022 3.808,-6.648992 0,1.149161 -1.46443,3.611648 -3.02666,3.611648 -1.65993,0 -2.53884,-3.036883 -2.53884,-6.40228 0,-3.365399 2.92952,-13.70798 10.44784,-13.70798 h 7.12767 l -7.323,21.99849 c -0.97645,1.149161 -6.34653,6.7306028 -8.7875,7.3051922 -1.46467,0.3282916 -1.26942,1.1491612 -0.0981,1.8058225 1.1717,0.6566613 3.22174,3.2831321 4.10049,5.4993699 L 234.48957,8.496547 c -0.97636,0.8208227 -1.95255,1.559397 -2.92899,1.88772 -1.75756,0.57459 -2.44121,1.067121 -2.3435,1.559623 0,0.492438 0.58618,0.574301 1.56216,0.574301 1.36697,0 0.879,-0.328099 4.49167,-0.328099 h 5.27249 l 2.92951,-8.7010166 c 3.61268,-8.1262001 9.37344,-15.1851964 13.27916,-15.1851964 1.85512,0 2.24533,1.641622 2.24533,2.9549373 0,8.29036933 -8.59242,7.1412054 -3.90567,9.02911782 1.75756,0.73873548 4.00339,0.65675508 6.05383,-0.24620176 l 0.68368,3.52974794 c 0.39005,3.5295605 -0.78157,5.663625 -4.394,6.8127867 -1.75749,0.57459 -2.53834,0.985088 -2.53834,1.313419 0,0.492439 0.68354,0.820505 1.65983,0.820505 1.65994,0 2.0502,-0.328099 4.6865,-0.328099 h 2.44117 4.29633 0.8785 c 2.83148,0 2.34341,0.328099 3.808,0.328099 0.87882,0 1.17149,-0.327966 1.17149,-0.820505 0,-0.328367 -0.38963,-0.820917 -1.95233,-1.313419 -2.53867,-0.7387333 -4.19841,-1.4773074 -5.27249,-4.5964552 l -1.75751,-8.5367143 c 1.26936,-1.5595817 2.05052,-3.6118768 2.05052,-5.9922812 0,-2.5445733 -1.66016,-4.9246923 -4.58934,-5.9917733 l -3.31966,-15.678107 c -0.58624,-3.857899 0.48839,-6.074142 4.687,-7.223296 1.95282,-0.492439 2.92899,-0.902681 2.92899,-1.231011 0,-0.49244 -0.87879,-0.821016 -1.85517,-0.821016 z m -59.60031,0.328102 c 3.51504,0 7.22533,1.888095 7.22533,8.044308 0,8.1262 -3.2221,16.088106 -13.08382,16.088106 -0.97637,0 -1.75757,-0.163778 -2.3435,-0.409998 v -16.58102 c 0.29273,-4.104148 1.36738,-5.499368 3.2225,-6.402281 l -0.0976,0.0819 c 1.75756,-0.738733 3.3196,-0.821013 5.07716,-0.821013 z m 198.04544,6.075707 c -2.00165,0.03667 -3.80198,1.020399 -4.04099,2.84913 -0.84388,6.465465 -9.73575,11.512871 -6.93129,13.332573 2.80434,1.819703 13.37572,-5.405598 15.58196,-7.71875 2.20602,-2.313147 1.72131,-5.663523 -1.08299,-7.483233 -1.05155,-0.682294 -2.32525,-1.001538 -3.52619,-0.97972 z m -304.706529,0.0021 c -1.200969,-0.0219 -2.474131,0.296884 -3.52568,0.979213 -2.80405,1.819535 -3.288768,5.169791 -1.082985,7.482722 2.205935,2.312931 12.776384,9.537783 15.580434,7.718243 h 5.2e-4 c 2.80406,-1.819526 -6.08692,-6.866203 -6.93079,-13.331047 -0.239,-1.828713 -2.03988,-2.812616 -4.041488,-2.849131 z m 156.204239,3.115681 3.12484,14.775197 c -3.51504,0.328292 -7.03034,2.790903 -10.05717,5.8279771 z m 157.24907,11.146764 c -2.22194,8e-6 -5.8849,1.877924 -10.27234,2.590719 -3.62967,0.589685 -6.40938,1.018027 -6.40938,2.843537 0,1.890978 3.21028,2.390575 6.12859,2.793176 4.44477,0.613136 8.28774,2.640572 10.55313,2.640572 3.64533,-7.8e-6 6.60015,-2.432561 6.60015,-5.433748 0,-3.001179 -2.95482,-5.43424 -6.60015,-5.434256 z m -322.198073,5.21e-4 c -3.64486,1.5e-5 -6.599651,2.432853 -6.599651,5.433748 0,3.000895 2.954791,5.4332245 6.599651,5.4332401 2.265248,-7.7e-6 6.10775,-2.0274381 10.552113,-2.6405711 2.91808,-0.402558 6.12759,-0.901876 6.12759,-2.792669 0,-1.825335 -2.77908,-2.253419 -6.40838,-2.843028 -4.387046,-0.712733 -8.049449,-2.590713 -10.271323,-2.59072 z m 26.968323,7.219225 c -4.22969,0.0013 -12.19617,15.8990714 -12.19617,20.3646028 0,4.4656982 3.42872,8.0860192 7.65821,8.0860192 4.22956,-8e-6 7.65872,-3.620321 7.65872,-8.0860192 0,-3.0747705 0.52543,-8.06185444 -0.5275,-13.0553427 -0.4762,-2.2586228 -1.27567,-7.3079641 -2.59276,-7.3092601 z m 268.2584,5.21e-4 c -1.31754,0 -2.11693,5.0506425 -2.59328,7.3097704 -1.05301,4.99397015 -0.52649,9.9812963 -0.52649,13.0563585 0,4.4661201 3.42928,8.0865291 7.65923,8.0865291 4.22995,8e-6 7.65874,-3.620401 7.65874,-8.0865291 0,-4.4661356 -7.96776,-20.3661369 -12.1977,-20.3661289 z m -276.89431,1.44466 c -3.93196,0.195534 -12.26612,5.9803081 -14.196314,8.0041209 -2.205783,2.31293084 -1.721065,5.6626719 1.082985,7.4822147 2.804128,1.8195323 7.184769,1.0565311 7.567169,-1.8694104 0.84387,-6.4648414 9.73485,-11.5115205 6.93079,-13.3310472 h -5.2e-4 c -0.3505,-0.227443 -0.82241,-0.313813 -1.38412,-0.285878 z m 285.53123,5.2e-4 c -0.56178,-0.02794 -1.0336,0.05791 -1.38414,0.285371 -2.80445,1.819709 6.08744,6.8671174 6.93132,13.3325735 0.38241,2.9262175 4.76367,3.6896276 7.56818,1.8699181 2.8043,-1.8197094 3.289,-5.17008594 1.08298,-7.4832304 -1.93045,-2.0240159 -10.26551,-7.8090762 -14.19785,-8.0046322 z M 244.85955,18.088268 c -7.71365,0 -19.43067,1.395324 -19.43067,14.036082 0.29351,8.94703 6.44428,10.506842 9.08051,10.506842 3.71037,0 7.90889,-2.709022 3.80799,-6.648993 0,1.149154 -1.46443,3.611648 -3.02665,3.611648 -1.65994,0 -2.53885,-3.036883 -2.53885,-6.40228 0,-3.365399 2.92953,-13.707983 10.44784,-13.707983 h 19.43015 l -10.25199,20.52077 c -3.90564,1.80583 -8.29953,3.77572 -9.6665,4.104051 -1.5623,0.328369 -1.36696,1.067082 -0.19534,1.805825 1.07409,0.574587 3.3195,2.626796 4.58883,4.678862 l -7.22532,14.446589 c -1.17171,1.313321 -2.53863,2.462121 -3.90567,2.872531 -1.75756,0.574595 -2.44066,1.067124 -2.44066,1.559626 0.098,0.492425 0.68346,0.656714 1.65984,0.656714 1.36688,0 0.97619,-0.328109 4.68649,-0.328109 h 6.05383 0.19534 27.535 v -4.925078 c 0,-3.529524 0.58496,-2.79057 0.58496,-4.842649 0,-0.984802 -0.58515,-1.641645 -1.46397,-1.723925 -0.68359,-0.08174 -1.75741,0.493119 -2.44066,2.380636 -1.56231,4.104158 -2.63646,6.484188 -11.91233,6.484188 l -11.22816,0.0824 24.60498,-49.167752 z m 20.69984,57.610354 c -1.56226,0 -0.97634,0.328083 -3.71035,0.328083 h -9.76416 c -7.61594,-0.08207 -19.333,1.395519 -19.333,13.954203 0.29274,8.947033 6.34653,10.588722 9.17816,10.588722 3.6126,0 7.81119,-2.872789 3.61267,-6.812783 0,1.231256 -1.36673,3.775966 -3.02667,3.775966 -1.65985,0 -2.44116,-3.119305 -2.44116,-6.484703 0,-3.3654 2.92949,-13.707978 10.35017,-13.707978 h 2.63599 v 23.804328 c -1.95274,2.13414 -5.27243,5.66327 -6.83466,6.07368 -0.68356,0.16413 -1.07383,0.49281 -1.07383,0.73911 0,0.32829 0.38981,0.65633 1.07383,0.82048 1.56223,0.41039 4.88192,3.94005 6.83466,6.07419 v 4.35077 c -0.39006,5.33538 -2.05034,6.23798 -5.07717,7.14089 -1.46459,0.49243 -1.85512,0.9849 -1.75749,1.39531 0,0.49243 0.48805,0.73912 1.26916,0.73912 1.5623,0 0.97644,-0.24672 3.808,-0.24672 h 10.5455 c 2.73401,0 2.14809,0.24672 3.71035,0.24672 0.78149,0 1.26912,-0.24669 1.36681,-0.73912 0.098,-0.41044 -0.38996,-0.90283 -1.85516,-1.39531 -2.92922,-0.985 -4.68653,-1.80603 -4.9795,-7.14141 V 84.973946 c 0.2935,-5.253316 2.05028,-6.156411 4.9795,-7.141415 1.46467,-0.492503 1.9528,-0.902991 1.85516,-1.313402 -0.098,-0.49245 -0.58603,-0.820507 -1.36681,-0.820507 z m -36.90851,58.348948 c -0.78149,0 -1.17153,0.32847 -1.26916,0.82102 0,0.41044 0.29279,0.90281 1.85516,1.39531 3.12452,0.985 4.78431,1.88823 5.17484,7.30571 v 14.52849 c -1.36697,1.55957 -5.95579,6.64869 -8.00616,7.2233 -0.68356,0.16413 -0.97668,0.4926 -0.97668,0.82099 0,0.32838 0.29374,0.57447 0.97668,0.7386 2.05037,0.65667 6.63919,5.74563 8.00616,7.30522 v 2.70873 c -0.39006,5.41745 -2.05032,6.3207 -5.17484,7.30568 -1.56214,0.49245 -1.85516,0.9849 -1.85516,1.39534 0.098,0.49242 0.48798,0.8205 1.26916,0.8205 1.75748,0 1.07411,-0.32811 3.90567,-0.32811 h 7.616 c 0.78065,0 1.36734,-0.49239 1.36734,-1.14911 v -37.34799 l 17.18432,38.4971 h 9.3735 c 2.83156,0 2.24577,0.32811 3.808,0.32811 0.78149,0 1.36735,-0.32798 1.36735,-0.8205 0,-0.41038 -0.39005,-0.90302 -1.85519,-1.31343 -3.0269,-1.06707 -4.78469,-1.97032 -5.07767,-7.30571 v -33.40774 c 0.2935,-5.33538 2.05077,-6.23811 5.07767,-7.30518 1.46459,-0.41036 1.85519,-0.90299 1.85519,-1.31343 0,-0.57456 -0.58663,-0.8205 -1.36735,-0.8205 -1.56223,0 -0.97644,0.24622 -3.808,0.24622 h -8.98284 v 40.54861 l -17.57498,-39.31761 c 0,-0.65666 -0.58662,-1.231 -1.36734,-1.231 h -7.616 c -2.83156,0 -2.14819,-0.32862 -3.90567,-0.32862 z m 41.88291,57.93897 c -0.92492,-0.003 -1.78307,0.30357 -2.24075,1.09874 -0.68356,1.0671 -1.46424,2.54494 -2.34299,4.35077 -2.63634,-1.47749 -6.24945,-1.80583 -8.88568,-1.80583 -11.03335,0 -24.40994,9.68566 -25.58165,26.92306 -1.75756,1.80583 -3.90553,3.6938 -5.07716,4.02214 -0.68356,0.16416 -0.97668,0.49211 -0.97668,0.8205 0,0.32838 0.29374,0.57497 0.97668,0.73913 1.36697,0.41035 3.90568,2.87247 5.8585,4.92455 2.2457,9.93204 8.98251,18.05822 20.79698,18.05822 4.29624,0 8.29991,-1.23104 11.03383,-3.69352 h 0.0976 3.41733 c 2.92928,0 2.34388,0.24619 3.90619,0.24619 0.87874,0 1.36687,-0.24617 1.46448,-0.73859 0.19542,-1.72377 -4.58943,-1.23131 -5.273,-3.36545 v -9.19342 c 0.68357,-3.44749 2.24595,-4.18596 4.687,-5.08888 1.36698,-0.49241 1.85513,-1.06711 1.75751,-1.55962 0,-0.49242 -0.488,-0.821 -1.26918,-0.821 -1.56223,0 -0.97643,0.32861 -3.808,0.32861 h -8.68982 c -2.83163,0 -2.24569,-0.32861 -3.808,-0.32861 -0.78141,0 -1.17204,0.32848 -1.26967,0.821 -0.0981,0.49245 0.39,1.06713 1.7575,1.55962 2.44105,0.90292 4.0036,1.64139 4.68701,5.08888 v 5.58177 c 0,6.15622 -4.68663,7.71569 -8.88516,7.71569 -7.71365,0 -13.08383,-10.17807 -13.08383,-22.65469 0,-15.34949 8.98264,-24.13242 23.23814,-24.13242 0.39007,0 0.87857,-1.6e-4 1.26917,0.0819 -1.65985,3.93997 -3.02665,8.53657 -3.02666,12.88698 0,2.7087 4.19877,5.82796 6.34684,5.82796 1.26933,0 1.95259,-0.65638 1.17149,-2.38013 -1.85513,-3.77581 -3.61285,-10.58883 5.27251,-22.73708 0.87267,-1.07223 -1.4853,-2.5712 -3.5201,-2.57648 z M 233.491,254.84191 c -2.25554,-1.3e-4 -4.27113,0.13174 -5.80865,0.13174 -4.46619,0 -8.08645,3.42873 -8.08652,7.65874 0,4.22995 3.62025,7.65923 8.08652,7.65923 4.46613,0 20.36664,-7.96768 20.36664,-12.19771 0,-1.31752 -5.05057,-2.11688 -7.30977,-2.59326 -2.49703,-0.52651 -4.99269,-0.65863 -7.24822,-0.65874 z m 32.68744,0 c -2.25555,1.1e-4 -4.75072,0.13223 -7.24771,0.65874 -2.2592,0.47638 -7.30977,1.27574 -7.30977,2.59326 0,4.23003 15.90051,12.19771 20.36664,12.19771 4.46619,0 8.08651,-3.42928 8.08651,-7.65923 0,-4.23001 -3.62032,-7.65874 -8.08651,-7.65874 -1.53752,0 -3.5536,-0.13187 -5.80916,-0.13174 z m -20.81428,9.96001 c -2.31321,0.0813 -6.82253,6.75033 -12.37879,7.47559 -2.9262,0.38232 -3.68912,4.76319 -1.86941,7.56767 1.81979,2.80435 5.17009,3.28953 7.48323,1.08351 2.31314,-2.20616 9.53846,-12.77817 7.71875,-15.58249 -0.2559,-0.39436 -0.57525,-0.55761 -0.95378,-0.54428 z m 8.94163,0 c -0.37853,-0.0133 -0.69788,0.14992 -0.95378,0.54428 -1.81971,2.80432 5.40553,13.37633 7.71875,15.58249 2.31307,2.20602 5.66344,1.72084 7.48323,-1.08351 1.8197,-2.80448 1.05686,-7.18535 -1.8694,-7.56767 -5.55635,-0.72526 -10.0656,-7.39425 -12.3788,-7.47559 z m -4.47081,3.58163 c -1.82554,0 -2.25347,2.77923 -2.84354,6.40888 -0.71275,4.38746 -2.59072,8.05076 -2.59072,10.27286 0,3.64529 2.43311,6.60016 5.43426,6.60016 3.00122,0 5.43425,-2.95487 5.43425,-6.60016 0,-2.26549 -2.02803,-6.10831 -2.64108,-10.55312 -0.40255,-2.91838 -0.90212,-6.12862 -2.79317,-6.12862 z"
       style="font-style:normal;font-variant:normal;font-weight:normal;font-stretch:normal;font-size:medium;line-height:1.25;font-family:'Victorian Monogram';-inkscape-font-specification:'Victorian Monogram';letter-spacing:0px;word-spacing:0px;fill:#000000;fill-opacity:1;stroke:none;stroke-width:0.46627274" />
  </g>
</svg>
