<?xml version="1.0" encoding="UTF-8" standalone="no"?>
<!-- Created with Inkscape (http://www.inkscape.org/) -->

<svg
   xmlns:dc="http://purl.org/dc/elements/1.1/"
   xmlns:cc="http://creativecommons.org/ns#"
   xmlns:rdf="http://www.w3.org/1999/02/22-rdf-syntax-ns#"
   xmlns:svg="http://www.w3.org/2000/svg"
   xmlns="http://www.w3.org/2000/svg"
   xmlns:sodipodi="http://sodipodi.sourceforge.net/DTD/sodipodi-0.dtd"
   xmlns:inkscape="http://www.inkscape.org/namespaces/inkscape"
   width="500mm"
   height="500mm"
   viewBox="0 0 500 500"
   version="1.1"
   id="svg5052"
   inkscape:version="0.92.1 r15371"
   sodipodi:docname="faith_cross.svg">
  <defs
     id="defs5046" />
  <sodipodi:namedview
     id="base"
     pagecolor="#ffffff"
     bordercolor="#666666"
     borderopacity="1.0"
     inkscape:pageopacity="0.0"
     inkscape:pageshadow="2"
     inkscape:zoom="0.29792083"
     inkscape:cx="946.23046"
     inkscape:cy="945.32713"
     inkscape:document-units="mm"
     inkscape:current-layer="layer1"
     showgrid="false"
     inkscape:window-width="1366"
     inkscape:window-height="715"
     inkscape:window-x="-8"
     inkscape:window-y="-8"
     inkscape:window-maximized="1" />
  <metadata
     id="metadata5049">
    <rdf:RDF>
      <cc:Work
         rdf:about="">
        <dc:format>image/svg+xml</dc:format>
        <dc:type
           rdf:resource="http://purl.org/dc/dcmitype/StillImage" />
        <dc:title></dc:title>
      </cc:Work>
    </rdf:RDF>
  </metadata>
  <g
     inkscape:label="Layer 1"
     inkscape:groupmode="layer"
     id="layer1"
     transform="translate(0,203)">
    <path
       style="font-style:normal;font-variant:normal;font-weight:normal;font-stretch:normal;font-size:medium;line-height:1.25;font-family:'letty script';-inkscape-font-specification:'letty script';letter-spacing:0px;word-spacing:0px;fill:#000000;fill-opacity:1;stroke:none;stroke-width:5.94891262"
       d="m 1000.7852,9.9199219 c -6.16193,-0.13454 -13.06124,2.1487931 -19.71684,7.7656251 -64.61265,67.019036 -72.69654,195.412583 -29.43164,333.644533 5.50945,16.47821 11.50959,33.12668 17.90625,49.85547 l -29.51563,0.33398 c 0,0 -7.84132,-0.62954 -11.78125,-0.0762 -85.65736,1.78297 -281.58392,-3.55116 -403.72461,5.73047 -40.70638,3.094 -73.21725,7.81529 -90.71484,14.96094 -12.14169,6.52309 -17.68929,34.25075 -14.24414,45.29296 l 1.41016,18.51368 c 1.64874,7.17228 5.24607,14.9441 11.69531,20.82812 7.19758,6.77092 17.53204,13.77257 27.57031,18.69336 54.40558,27.82413 135.64308,29.95639 217.78125,20.95899 91.72948,-11.57276 170.34793,-29.79659 232.70117,-55.24219 4.02216,18.55093 10.83338,40.67706 20.79297,62.16211 -14.82438,-6.12555 -30.82154,-9.10912 -45.40234,-6.17383 -51.15969,11.0343 -32.16018,83.26062 -17.54297,104.32617 15.63147,21.15945 34.76123,40.33378 52.77734,54.85352 -15.13251,-3.44492 -29.38721,-6.1689 -38.55664,-7.70704 -9.30194,0 -36.47721,8.09529 -43.78515,23.14258 -7.30848,15.04689 1.32847,42.13086 5.98047,52.16211 11.29496,22.06901 39.19897,51.1591 62.45312,73.22852 11.29538,11.03429 21.92521,21.0664 33.88477,31.09765 l 0.22461,-0.22851 c 12.87377,12.73233 22.49644,21.31164 34.18359,31.73828 -9.96612,-5.01562 -16.53703,-17.75345 -28.49609,-21.76563 -25.91226,-12.03775 -53.81806,-20.0614 -72.42188,-21.06445 -13.28799,0 -41.60431,11.68099 -40.27539,38.76563 0.66799,18.05642 7.9741,35.11047 13.28906,44.13867 15.17884,25.32948 32.52877,44.47936 51.16406,61.62303 -7.58403,-3.135 -14.60874,-5.8875 -20.85546,-8.1816 -53.15282,-20.06335 -64.10534,50.8556 -42.17969,93.9902 5.97951,12.0378 13.95323,26.0827 24.58398,39.1231 13.04316,19.1135 26.7588,36.5453 41.89844,52.5078 -3.94134,-1.5412 -7.84476,-2.9895 -11.67773,-4.2754 -7.30836,-3.0055 -15.94548,-6.0181 -23.25391,-7.0215 -7.30847,0 -11.29635,8.0245 -11.96094,17.0527 -0.66414,7.0222 0.66914,14.0434 3.32422,20.0625 7.30885,14.0435 23.91824,26.0827 30.5625,34.1075 l 20.59766,21.0664 c 31.22747,34.1067 60.38868,73.8058 75.00586,105.9062 7.97268,20.0629 -15.8732,16.4754 -45.77149,7.4473 -21.26143,-5.0157 -45.38092,-8.8575 -67.30664,-8.8575 -13.28799,-1.0018 -39.46357,19.371 -38.13476,48.4629 0.66799,17.0539 9.31917,23.438 23.05273,46.9454 13.28837,22.0686 23.14428,39.3251 38.42578,61.3945 59.64548,91.356 57.05551,215.8913 50,327.7676 -3.92991,41.5377 44.27696,10.7857 43.83789,-4.2852 11.09583,-124.4748 14.64533,-231.4635 -65.84179,-349.0469 -13.95258,-20.0625 -42.19196,-41.1279 -56.14454,-65.2031 -12.62377,-20.0625 -7.30814,-36.1627 6.99805,-37.1152 19.2683,1.0018 43.18693,12.0379 63.11914,18.0566 26.57635,7.0217 53.15258,7.0204 60.46094,-7.0234 5.98003,-12.0374 1.99155,-34.843 -0.66406,-43.8711 -13.28875,-34.106 -52.48894,-78.2446 -85.04493,-114.3574 l -19.93359,-21.0645 c -12.42096,-12.5704 -20.88811,-23.2378 -2.6582,-15.3144 51.15938,19.0594 108.29883,53.1673 164.10941,85.2675 38.5359,23.0725 75.7413,45.1411 110.955,61.1914 5.3154,-4.0114 6.6451,-32.1021 2.6602,-35.1113 -34.5494,-16.0503 -73.0851,-39.1209 -111.6211,-62.1934 -34.3598,-19.2133 -69.91967,-39.3183 -103.79882,-56.8476 l 0.15234,-0.1094 c -27.24057,-23.072 -51.82404,-50.1554 -78.40039,-85.2656 -10.63075,-13.0404 -18.60496,-27.0844 -23.91992,-38.1191 -21.92561,-47.1472 -3.32341,-61.1906 27.24023,-50.1563 24.58333,10.0313 59.79824,25.0775 94.34766,42.1309 l 41.5352,27.0859 c -0.6641,29.0907 8e-4,53.1645 2.6601,69.2148 l 14.2754,-2.0078 c -2.6594,-15.0473 -3.3223,-38.1185 -3.3223,-65.2031 l 44.5137,25.0762 c 5.3153,4.0113 13.2875,-31.0975 5.3145,-33.1035 -9.3019,-5.0153 -19.2679,-12.0376 -48.502,-28.0879 0.6641,-27.0847 -8e-4,-52.1621 -2.6601,-67.209 l -14.2754,2.0078 c 2.6592,14.0438 3.3242,38.1192 3.3242,64.2012 l -38.87893,-25.0782 c -8.69903,-4.6212 -17.434,-9.0613 -26.03125,-13.2714 l -1.875,-1.6934 c -29.89867,-27.0846 -62.45362,-51.16145 -87.70117,-93.29297 -12.62377,-20.06291 -7.30999,-38.11827 14.61523,-37.11523 35.8783,2.00772 89.69556,30.09351 122.25196,47.14648 5.97956,4.01137 8.31166,-31.80991 6.98246,-33.8164 l -1.6641,0.70898 c -0.6641,-1.00182 -12.28664,-15.76171 -17.60157,-20.77734 -9.87087,-8.62768 -19.36595,-18.49235 -30.96484,-29.09375 l 0.0664,-0.0664 -1.89063,-1.58398 c -2.48037,-2.23943 -5.03902,-4.50224 -7.74219,-6.80078 -46.96728,-43.30382 -75.7169,-73.40402 -87.37304,-93.93555 -3.32311,-7.02212 -5.31499,-13.04102 -4.65039,-18.05664 1.32763,-7.02171 9.96615,-12.03734 30.5625,-10.03125 11.29534,0 30.56231,4.01245 49.16601,9.0293 14.61691,3.00953 34.54938,8.02475 48.50196,15.04687 4.65112,3.00547 12.62356,-27.08417 3.98632,-34.10547 -2.65927,-2.00772 -5.31481,-3.00582 -8.63672,-4.01172 -22.59023,-12.03775 -56.47526,-41.12912 -81.05859,-74.23242 -12.62377,-17.05338 -41.85716,-59.18445 -3.98633,-65.20312 20.59684,-3.00954 44.51589,4.01009 62.45508,14.04297 35.87822,24.07509 66.44152,75.23608 51.82422,168.52734 l 15.4531,0.67187 c 12.3234,-78.65299 -3.3376,-137.1074 -36.82615,-175.15625 -21.38906,-37.42236 -46.51896,-100.75336 -51.86133,-128.61718 l 8.45118,-8.08789 c 59.06812,-1.63306 130.2465,-3.34938 192.1543,-3.55274 30.7123,31.54708 68.796,55.7906 110.4531,70.11719 42.2056,14.51523 94.3374,19.84455 138.4961,13.50781 9.961,-2.17183 16.9489,-4.69997 24.8809,-7.58203 11.017,-3.1501 21.8989,-7.41195 32.1308,-13.4707 5.8273,-3.45051 11.7083,-7.62544 16.8242,-13.1211 0.8434,-0.90622 1.6512,-1.86431 2.4434,-2.83984 0.9179,-0.8509 1.8053,-1.70355 2.6387,-2.54883 6.2232,-6.12269 9.5246,-14.0285 10.9023,-21.25781 8.4735,-61.06067 -63.01,-72.76466 -98.6972,-74.45313 l -244.8282,-0.33203 -121.3144,2.7461 c -1.4668,-13.83725 -2.5521,-27.60486 -6.87111,-41.25391 C 982.39273,308.6109 971.33188,259.23956 967.53516,214.1543 961.96039,147.95908 978.10645,91.003566 1009.916,51.671875 c 21.2108,-19.186441 9.3548,-41.348333 -9.1308,-41.7519531 z m 162,440.1777381 211.5722,0.37109 c 28.912,3.64002 93.3144,9.71871 56.5371,40.97266 -20.7691,11.05885 -39.2949,15.90394 -59.8027,20.05859 -40.7721,5.843 -83.0142,1.92302 -121.9531,-11.46875 -31.6061,-10.86985 -61.0963,-27.99604 -86.3535,-49.93359 z m -238.07622,2.43359 0.15235,5.39258 c -60.8569,27.21914 -157.23627,54.18608 -250.46289,63.98828 -80.63747,10.77063 -160.22917,7.12388 -213.13477,-18.92578 -8.38926,-6.45117 -13.93351,-14.74692 -13.77734,-18.05274 -0.33411,-15.61946 41.39028,-23.79377 99.30859,-27.86718 74.46667,-5.23725 175.69461,-3.69787 248.70703,-2.49414 32.37517,0.0121 59.21628,0.41721 76.60547,0.10156 z m 108.90232,468.40234 c -4.6234,0.0283 -9.0559,3.31854 -11.9629,11.2168 -3.3231,9.02821 -2.6594,17.0536 0.668,23.07227 l 4.6504,4.01172 5.3164,3.00585 c 5.3153,0 10.6292,-4.01158 14.6152,-13.04101 3.3232,-8.02477 1.9929,-16.04969 -1.3261,-22.06836 l -0,0.004 c -0.6641,-1.00182 -2.6607,-3.00388 -3.9883,-4.00977 -1.9915,-2.00772 -3.9854,-2.00781 -5.9785,-2.00781 -0.6644,-0.12523 -1.3298,-0.18764 -1.9903,-0.1836 z"
       transform="matrix(0.26458333,0,0,0.26458333,0,-203)"
       id="path4947"
       inkscape:connector-curvature="0" />
  </g>
</svg>
