<?xml version="1.0" encoding="UTF-8" standalone="no"?>
<!-- Created with Inkscape (http://www.inkscape.org/) -->

<svg
   xmlns:dc="http://purl.org/dc/elements/1.1/"
   xmlns:cc="http://creativecommons.org/ns#"
   xmlns:rdf="http://www.w3.org/1999/02/22-rdf-syntax-ns#"
   xmlns:svg="http://www.w3.org/2000/svg"
   xmlns="http://www.w3.org/2000/svg"
   xmlns:sodipodi="http://sodipodi.sourceforge.net/DTD/sodipodi-0.dtd"
   xmlns:inkscape="http://www.inkscape.org/namespaces/inkscape"
   width="500mm"
   height="500mm"
   viewBox="0 0 500 500"
   version="1.1"
   id="svg5619"
   inkscape:version="0.92.1 r15371"
   sodipodi:docname="theanchorholds.svg">
  <defs
     id="defs5613" />
  <sodipodi:namedview
     id="base"
     pagecolor="#ffffff"
     bordercolor="#666666"
     borderopacity="1.0"
     inkscape:pageopacity="0.0"
     inkscape:pageshadow="2"
     inkscape:zoom="0.17197039"
     inkscape:cx="629.91106"
     inkscape:cy="625.15117"
     inkscape:document-units="mm"
     inkscape:current-layer="g6415"
     showgrid="false"
     inkscape:window-width="1366"
     inkscape:window-height="715"
     inkscape:window-x="-8"
     inkscape:window-y="-8"
     inkscape:window-maximized="1" />
  <metadata
     id="metadata5616">
    <rdf:RDF>
      <cc:Work
         rdf:about="">
        <dc:format>image/svg+xml</dc:format>
        <dc:type
           rdf:resource="http://purl.org/dc/dcmitype/StillImage" />
        <dc:title></dc:title>
      </cc:Work>
    </rdf:RDF>
  </metadata>
  <g
     inkscape:label="Layer 1"
     inkscape:groupmode="layer"
     id="layer1"
     transform="translate(0,203)">
    <g
       style="stroke-width:0.10780401"
       transform="matrix(9.276093,0,0,9.276093,6096.5871,-2451.9655)"
       id="g6415">
      <path
         style="font-style:normal;font-variant:normal;font-weight:normal;font-stretch:normal;font-size:medium;line-height:1.25;font-family:'Stockholm Night';-inkscape-font-specification:'Stockholm Night';letter-spacing:0px;word-spacing:0px;fill:#1a1a1a;fill-opacity:1;stroke:none;stroke-width:0.32833439"
         d="m 1577.8438,971.50391 c -0.5061,0 -0.7972,0.10415 -0.9004,0.17773 -0.1031,0.0736 -0.1289,0.0908 -0.1289,0.33984 v 0.9336 c 0,0.90184 0.2562,1.40952 0.8261,1.8125 0.5699,0.40298 1.5625,0.67187 3.002,0.67187 h 4.9746 a 0.75769325,0.75769325 0 0 1 0.7578,0.75782 v 59.17773 c 0,0.3134 0.057,0.3739 0.1504,0.4453 0.09,0.048 0.4995,0.1719 1.1914,0.1719 h 5.7539 c 0.6458,0 1.057,-0.1193 1.2266,-0.2266 0.1697,-0.1072 0.1914,-0.1318 0.1914,-0.3906 v -59.17773 a 0.75769325,0.75769325 0 0 1 0.7578,-0.75782 h 4.5879 c 1.3596,0 2.3209,-0.25592 2.9179,-0.6582 0.6411,-0.43034 0.9082,-0.93968 0.9082,-1.82617 v -0.9336 c 0,-0.24908 -0.026,-0.26626 -0.1289,-0.33984 -0.1032,-0.0736 -0.3943,-0.17773 -0.9004,-0.17773 z m 33.5468,0 c -0.5305,0 -0.9022,0.11048 -1.0058,0.12109 -0.011,0.0418 -0.024,0.11034 -0.024,0.25 v 63.6973 c 0,0.2458 0.036,0.2632 0.08,0.2968 0.025,0.01 0.3873,0.1231 1.0274,0.1231 h 4.121 c 1.0387,0 1.8546,-0.2061 2.4922,-0.582 0.6214,-0.3664 0.793,-0.6717 0.793,-1.1641 v -28.4356 a 0.75769325,0.75769325 0 0 1 0.7578,-0.7578 h 8.6289 a 0.75769325,0.75769325 0 0 1 0.7578,0.7578 v 28.4356 c 0,0.4924 0.1716,0.7977 0.793,1.1641 0.6375,0.3759 1.4535,0.582 2.4922,0.582 h 4.1191 c 0.6404,0 1.0057,-0.1186 1.0293,-0.1231 0.044,-0.033 0.08,-0.051 0.08,-0.2968 V 971.875 c 0,-0.14084 -0.017,-0.21018 -0.027,-0.25195 -0.1056,-0.0114 -0.4758,-0.11914 -1.0039,-0.11914 h -4.3536 c -0.925,0 -1.6857,0.19855 -2.3359,0.58203 a 0.75769325,0.75769325 0 0 1 -0.022,0.0117 c -0.6126,0.33532 -0.7715,0.61108 -0.7715,1.10351 v 27.30475 a 0.75769325,0.75769325 0 0 1 -0.7578,0.7578 h -8.6289 a 0.75769325,0.75769325 0 0 1 -0.7578,-0.7578 v -27.30475 c 0,-0.49237 -0.159,-0.76819 -0.7715,-1.10351 a 0.75769325,0.75769325 0 0 1 -0.021,-0.0117 c -0.6505,-0.38357 -1.4109,-0.58203 -2.3359,-0.58203 z m 26.1153,0.11914 c 0.039,0.004 0.048,-0.003 0.01,-0.0371 -0.025,-0.0191 -0.018,-0.0111 -0.01,0.0371 z m -27.1211,0.002 c 0.012,-0.0484 0.019,-0.0574 0,-0.0391 -0.042,0.0332 -0.034,0.0429 0,0.0391 z m 37.3105,-0.12109 c -0.6306,0 -0.9749,0.1116 -1.0098,0.11914 0.027,-0.0217 -0.021,-0.002 -0.021,0.30078 v 63.64852 c 0,0.3156 0.045,0.2969 0.035,0.291 -0.054,-0.034 0.095,0.04 0.3555,0.074 0.26,0.034 0.6361,0.055 1.1074,0.055 h 19.2012 c 0.5059,0 0.7965,-0.1035 0.9004,-0.1777 0.104,-0.074 0.1308,-0.093 0.1308,-0.3418 v -0.9317 c 0,-0.8864 -0.2608,-1.3697 -0.8906,-1.7676 a 0.75769325,0.75769325 0 0 1 -0.037,-0.025 c -0.5956,-0.4263 -1.5476,-0.6914 -2.9023,-0.6914 h -8.629 a 0.75769325,0.75769325 0 0 1 -0.7578,-0.7578 v -24.5058 a 0.75769325,0.75769325 0 0 1 0.7578,-0.7578 h 7.1524 c 1.3538,0 2.3039,-0.2663 2.9004,-0.6934 a 0.75769325,0.75769325 0 0 1 0.02,-0.014 c 0.6467,-0.434 0.9082,-0.9296 0.9082,-1.7773 v -0.9824 c 0,-0.2257 -0.014,-0.2241 -0.1172,-0.295 -0.1033,-0.071 -0.4026,-0.1738 -0.9121,-0.1738 h -9.9512 a 0.75769325,0.75769325 0 0 1 -0.7578,-0.7578 v -25.14458 a 0.75769325,0.75769325 0 0 1 0.7578,-0.75782 h 8.629 c 1.354,0 2.306,-0.26652 2.9023,-0.69336 a 0.75769325,0.75769325 0 0 1 0.022,-0.0137 c 0.6467,-0.43406 0.9082,-0.92964 0.9082,-1.77734 v -0.9336 c 0,-0.24852 -0.025,-0.26592 -0.1289,-0.33984 -0.1038,-0.0739 -0.3962,-0.17773 -0.9024,-0.17773 z m 90,6.60937 c -1.7174,-0.094 -3.6154,0.10185 -5.709,0.63477 -20.5045,5.88738 -27.8134,33.0914 -29.4375,50.1446 -1.6241,15.4291 -1.2164,32.0748 -1.0136,47.5039 0,3.1223 0.016,6.487 0.057,9.9375 -2.3911,6.1084 -4.9303,12.1812 -8.707,17.4686 -4.2633,5.2784 -8.3245,12.3842 -16.0391,11.3693 -13.805,-2.2332 -10.9622,-32.4813 -6.0898,-41.0079 1.2181,-2.2331 5.8876,-8.7294 7.5117,-3.2481 1.6241,4.8723 9.3389,2.6383 7.7148,-2.0311 -1.6241,-5.4814 -6.294,-8.324 -11.7754,-7.5118 -7.1055,0.8116 -11.5717,6.9038 -14.2109,13.1973 -1.5668,3.7138 -2.7668,8.0491 -3.4805,12.6016 -6.2264,22.4852 -5.757,39.3103 -14.1797,57.4375 l -2.4355,4.873 c -3.6543,7.5115 -6.0899,-8.3232 -6.0899,-10.1504 -1.4211,-8.7296 -1.2187,-17.8661 -1.2187,-26.7988 0,-9.7447 4.8736,-34.7147 -8.5254,-37.9629 -8.9325,-2.0301 -17.0545,8.9313 -20.3027,15.4277 -2.2332,4.6694 -3.4516,9.1353 -4.2637,14.0079 -1.4211,-8.7298 -1.4202,-17.6606 1.625,-25.5782 1.6241,-4.8723 -8.9325,-7.1067 -10.5566,-2.2343 -1.2253,3.2673 -1.9936,6.7766 -2.4258,10.4061 -3.3915,12.0561 -7.2831,30.6232 -18.2559,27.9629 -5.0754,-1.218 -3.2497,-13.6015 -2.6406,-17.2559 0.6089,-3.8572 2.8421,-8.3226 3.4512,-16.2402 0.2026,-2.436 -3.0441,-3.6546 -4.8711,-4.2637 0.6089,-0.8127 0.8119,-1.827 0.6093,-3.248 -3.4512,-10.5568 -16.8504,-13.8056 -25.58,-8.3242 -9.1356,5.8874 -14.8214,23.1444 -13.1973,33.7011 1.6241,9.5416 7.7152,20.5037 19.084,16.2403 4.6694,-1.8271 8.1208,-5.2778 11.166,-9.541 0.8127,7.3084 3.6538,13.601 9.9473,16.2402 8.3236,3.8573 14.8207,-4.4661 19.084,-10.3535 0.7218,-1.166 1.3896,-2.4174 2.0195,-3.7246 1.0024,5.9493 2.518,11.7319 4.248,16.9218 1.0153,3.8573 9.5416,2.8425 10.5567,-0.8125 2.6393,-10.7597 2.4368,-23.1442 8.3242,-33.2949 1.6241,-2.2331 7.1049,-10.9621 9.7441,-6.0898 2.2331,3.4513 0.8125,13.1952 0.8125,16.6465 0,16.4441 -1.8279,30.8585 2.0293,47.0996 1.2181,5.0754 5.482,12.5873 11.9785,11.5723 11.8202,-1.6118 16.4416,-26.5861 21.2735,-49.6602 1.1654,3.443 2.8375,6.6024 5.1152,9.2598 8.7296,9.9477 21.1137,4.0604 29.0313,-3.4511 4.8896,-4.1226 7.5569,-8.5285 9.9765,-13.836 0.4584,8.8915 1.3206,17.7276 2.9375,25.205 0.609,3.2482 9.9462,2.8428 11.5703,0.2031 0.8116,-0.8126 -1.0142,-9.9488 -1.623,-16.4453 3.8573,-9.3386 10.9618,-31.0604 19.6914,-27.2031 4.2634,2.0301 0.4078,18.4744 -0.2012,21.7227 -1.0153,7.3084 -0.8124,13.8046 1.8262,20.9101 4.8723,14.0079 17.4592,10.151 24.9707,1.0156 2.5905,-3.3306 5.395,-8.1286 7.9941,-13.7832 2.8483,4.5772 7.0605,8.3422 12.3321,10.7383 13.3988,6.0905 24.9717,-3.0453 30.4531,-14.6172 1.6241,-3.8572 3.0452,-7.9183 3.6543,-12.1816 8.8513,-2.0716 16.9942,-7.9889 19.9102,-15.4784 5.9717,1.7355 12.5221,-0.6802 19.9023,-2.1837 12.7899,-2.6392 -2.6376,19.2853 -4.2617,23.1426 -6.6995,15.0231 -3.6555,27.6111 11.9765,30.8593 11.1659,2.0301 22.3328,-5.2783 27.2051,-14.414 6.2935,-11.5717 7.1047,-25.3762 9.3379,-38.3692 0.6089,-4.8723 -6.9027,-6.9037 -7.5117,-2.0312 -2.6392,16.2411 -3.2489,43.0401 -22.7383,48.5216 -9.1356,2.6392 -8.933,-9.3392 -7.918,-15.2266 1.4212,-9.1357 5.8885,-16.2408 8.9336,-24.5644 2.2332,-7.1055 -1.2173,-15.4301 -9.3379,-16.0391 -6.2933,-0.609 -13.3999,3.8571 -19.6933,3.248 5.4814,-6.0904 12.7903,-16.2401 7.918,-23.1425 -5.2785,-7.5116 -17.4601,-7.5116 -22.9415,-0.4063 -5.4813,7.1055 -4.6694,17.865 0.8125,24.5645 0.4941,0.6298 0.9925,1.203 1.4942,1.7285 -0.03,0.1034 -0.073,0.1921 -0.096,0.3026 -1.4211,5.6845 -6.6986,9.3388 -12.586,10.9629 -0.2025,-5.6842 -1.8279,-11.3695 -5.0761,-15.6328 -1.4211,-1.6241 -2.8427,-2.6391 -4.4668,-3.4512 0,-0.6089 -0.4051,-1.4222 -1.2168,-2.2344 -19.4893,-17.8652 -38.3701,9.7464 -39.9942,28.2207 -0.2669,2.2881 -0.2546,4.5399 0.016,6.7227 -3.9518,9.6561 -9.0649,18.9477 -13.4395,23.3224 -7.7145,7.7145 -6.2949,-9.3389 -6.2949,-14.6172 0,-7.3086 1.0162,-16.4435 1.625,-23.752 0.6089,-11.5718 -11.3692,-16.0373 -22.1289,-9.1347 -5.4814,3.8572 -8.9331,9.5404 -11.5723,15.8339 0,-1.4211 -0.2012,-3.0458 -0.2012,-4.6699 0.2026,-0.2027 0.608,-0.2017 0.8106,-0.8105 15.8352,-21.3165 32.2803,-43.4462 37.7617,-69.838 2.2078,-12.1428 2.4144,-40.12406 -14.1875,-41.03317 z m -1.6973,7.9336 c 3.9582,0.0454 6.8378,4.25982 8.3731,9.14453 3.0452,11.16584 0.2029,23.34564 -3.0449,33.90244 -5.6845,17.8653 -16.8519,33.0922 -28.2207,48.3182 -0.2026,-9.5417 0,-18.6769 0,-28.2186 0,-18.6774 1.4224,-47.1011 16.8515,-60.29697 2.2205,-2.03013 4.2419,-2.87023 6.041,-2.8496 z m 102.8731,67.81257 c 3.8035,0.2757 3.628,5.1416 1.9785,8.9355 -1.6241,3.4513 -4.2632,6.4956 -6.9023,9.1348 -1.6243,-4.6694 -1.8263,-16.2409 1.625,-17.459 1.3322,-0.4948 2.4211,-0.675 3.2988,-0.6113 z m -46.541,16.1015 c 1.1281,0.044 2.3366,0.3441 3.6308,0.9531 -1.6241,1.0152 -3.0455,2.4365 -4.0605,4.4668 -5.0754,9.5416 3.6549,18.2713 11.9785,21.7226 1.0153,0.2026 2.2333,0.6088 3.8574,0.8125 -1.0153,5.8874 -3.6544,11.1666 -7.5117,15.836 -6.4965,7.5115 -10.15,6.2934 -16.4434,-0.4063 -5.2784,-5.2784 -6.7002,-16.6482 -5.0761,-23.5508 1.7763,-7.816 5.7285,-20.1393 13.625,-19.8339 z m -240.9336,0.205 c 3.2752,-0.117 6.5123,1.7384 7.5273,5.418 0.4064,1.4212 1.2176,2.2344 2.6387,2.4375 -0.4063,0.4063 -0.6094,0.8102 -0.6094,1.2168 -2.4361,6.4964 -11.9777,39.5875 -21.1133,24.5644 -4.8723,-8.7296 -0.4069,-24.7672 6.0899,-31.2636 1.5226,-1.5227 3.5017,-2.3029 5.4668,-2.3731 z m 250.5683,6.2871 c 3.847,-0.3608 6.1778,11.3623 6.1778,13.1387 v 0.2031 c -0.8116,0 -1.4203,-0.2025 -2.2324,-0.4062 -4.6693,-1.0153 -10.5579,-7.7153 -5.6856,-11.9784 0.6091,-0.6091 1.1907,-0.9056 1.7402,-0.9572 z m 30.5098,65.2149 c -2.1258,2e-4 -4.0614,0.2091 -5.8086,0.6191 a 0.75769325,0.75769325 0 0 1 -0.01,0 c -1.703,0.3797 -3.1336,0.9135 -4.2949,1.5859 a 0.75769325,0.75769325 0 0 1 -0.012,0.01 c -1.1653,0.644 -2.0284,1.3897 -2.625,2.2304 -0.5932,0.8359 -0.8711,1.6964 -0.8711,2.6563 0,3.5359 0.4579,6.7996 1.3672,9.7988 0.9207,3.0047 2.0717,5.8794 3.4512,8.6231 1.4411,2.7629 2.9565,5.4254 4.5508,7.9921 1.6678,2.6015 3.2069,5.2353 4.6152,7.9043 1.4703,2.6885 2.6788,5.479 3.625,8.3672 0.9602,2.8983 1.4375,6.0104 1.4375,9.3242 0,0.9343 -0.5669,1.767 -1.4219,2.3457 -0.9341,0.6323 -2.2113,0.8672 -3.8457,0.8672 -1.5854,0 -2.8391,-0.2401 -3.7656,-0.8672 -0.8552,-0.5787 -1.4219,-1.4114 -1.4219,-2.3457 v -13.7519 c 0,-0.1272 -0.01,-0.1561 -0.1328,-0.2676 a 0.75769325,0.75769325 0 0 1 -0.037,-0.033 c -0.1791,-0.1809 -0.3873,-0.3144 -0.6524,-0.4101 a 0.75769325,0.75769325 0 0 1 -0.053,-0.022 c -0.2866,-0.1292 -0.6319,-0.228 -1.0391,-0.2852 a 0.75769325,0.75769325 0 0 1 -0.014,0 c -0.3804,-0.06 -0.7289,-0.088 -1.0469,-0.088 h -4.5859 c -0.4979,0 -0.8103,0.09 -0.9063,0.1445 -0.096,0.055 -0.047,-0.029 -0.047,0.078 v 14.8322 c 0,0.9674 0.2627,1.8551 0.8106,2.7246 0.5978,0.8352 1.4574,1.5925 2.6152,2.2636 1.1637,0.6423 2.5945,1.1611 4.2988,1.541 1.7479,0.3783 3.7437,0.5703 5.9786,0.5704 2.1833,-2e-4 4.1515,-0.1931 5.9023,-0.5723 1.7577,-0.3807 3.2155,-0.8989 4.375,-1.5391 1.162,-0.6738 2.0254,-1.4345 2.6231,-2.2734 v 0 c 0.5974,-0.8717 0.8769,-1.7538 0.8769,-2.7129 0,-3.7025 -0.459,-7.101 -1.3691,-10.1993 -0.9204,-3.165 -2.0966,-6.1467 -3.5254,-8.9511 a 0.75769325,0.75769325 0 0 1 0,-0.01 c -1.3871,-2.8236 -2.9024,-5.5165 -4.5449,-8.0781 a 0.75769325,0.75769325 0 0 1 -0.01,-0.012 c -1.6116,-2.6272 -3.1454,-5.2384 -4.6016,-7.834 a 0.75769325,0.75769325 0 0 1 -0.01,-0.014 c -1.4172,-2.6525 -2.5987,-5.343 -3.545,-8.0664 -0.9618,-2.7678 -1.4414,-5.7028 -1.4414,-8.7929 0,-0.9158 0.562,-1.7249 1.4024,-2.3321 0.9339,-0.6742 2.2236,-0.9296 3.8633,-0.9296 1.6349,0 2.9217,0.2555 3.8554,0.9257 0.8483,0.5785 1.4121,1.4061 1.4121,2.336 v 14.1445 c 0,0.1914 0.038,0.2823 0.1328,0.3945 0.094,0.1116 0.2801,0.2456 0.6036,0.3614 0.8129,0.2708 1.559,0.4004 2.2382,0.4004 h 4.5079 c 0.5266,0 0.865,-0.091 0.9765,-0.1524 0.1116,-0.061 0.055,0.025 0.055,-0.072 v -15.3222 c 0,-0.9599 -0.2779,-1.8204 -0.8711,-2.6563 -0.5911,-0.8331 -1.4752,-1.5773 -2.6914,-2.2226 a 0.75769325,0.75769325 0 0 1 -0.012,-0.01 c -1.2157,-0.6759 -2.7002,-1.2114 -4.457,-1.5918 a 0.75769325,0.75769325 0 0 1 -0.016,0 c -1.7456,-0.4096 -3.708,-0.6189 -5.8867,-0.6191 v 0 z m -100.9277,0.049 c -2.334,3e-4 -4.3709,0.2253 -6.1074,0.6641 a 0.75769325,0.75769325 0 0 1 -0.012,0 c -1.7562,0.412 -3.2157,0.965 -4.3769,1.6367 -1.1115,0.673 -1.9258,1.4306 -2.4727,2.2656 -0.5542,0.8461 -0.8086,1.6714 -0.8086,2.5313 v 52.0566 c 0,0.7977 0.2353,1.603 0.7481,2.4571 0.4936,0.8221 1.2769,1.5938 2.3867,2.2969 v 0 c 1.162,0.7029 2.6182,1.2845 4.375,1.7285 1.7342,0.4382 3.8263,0.664 6.2676,0.664 2.4379,0 4.5243,-0.2407 6.2539,-0.709 a 0.75769325,0.75769325 0 0 1 0.012,0 c 1.7569,-0.4438 3.1872,-1.0253 4.291,-1.7226 a 0.75769325,0.75769325 0 0 1 0.014,-0.01 c 1.1661,-0.7058 1.9733,-1.4652 2.4629,-2.2481 0.5129,-0.8541 0.748,-1.6594 0.748,-2.457 v -52.0566 c 0,-0.8599 -0.2545,-1.6852 -0.8086,-2.5313 -0.5486,-0.8373 -1.3645,-1.5971 -2.4804,-2.2715 -1.0995,-0.6643 -2.5524,-1.2182 -4.3614,-1.6308 a 0.75769325,0.75769325 0 0 1 -0.019,0 c -1.7365,-0.4388 -3.7737,-0.6638 -6.1074,-0.6641 v 0 z m -48.8965,0.9336 c -0.5314,0 -0.9016,0.1102 -1.0039,0.1211 -0.011,0.042 -0.024,0.1113 -0.024,0.2519 v 63.6955 c 10e-5,0.2465 0.038,0.2659 0.08,0.2988 0.023,0 0.386,0.1211 1.0274,0.1211 h 4.1211 c 1.0387,0 1.8521,-0.2058 2.4902,-0.5821 0.6213,-0.3663 0.793,-0.6716 0.793,-1.164 v -28.4356 a 0.75769325,0.75769325 0 0 1 0.7578,-0.7579 h 8.6308 a 0.75769325,0.75769325 0 0 1 0.7578,0.7579 v 28.4356 c 0,0.4924 0.1717,0.7977 0.793,1.164 0.6377,0.376 1.4535,0.5821 2.4922,0.5821 h 4.1191 c 0.6412,0 1.0043,-0.117 1.0274,-0.1211 0.042,-0.033 0.08,-0.053 0.08,-0.2988 v -63.6955 c 0,-0.1418 -0.015,-0.2123 -0.025,-0.2538 -0.1023,-0.01 -0.4727,-0.1191 -1.0039,-0.1191 h -4.3535 c -0.925,0 -1.6854,0.1985 -2.336,0.582 a 0.75769325,0.75769325 0 0 1 -0.022,0.012 c -0.6117,0.3349 -0.7715,0.6131 -0.7715,1.1055 v 27.3046 a 0.75769325,0.75769325 0 0 1 -0.7578,0.7579 h -8.6308 a 0.75769325,0.75769325 0 0 1 -0.7578,-0.7579 v -27.3046 c 0,-0.4925 -0.1599,-0.7706 -0.7715,-1.1055 a 0.75769325,0.75769325 0 0 1 -0.022,-0.012 c -0.6505,-0.3835 -1.4111,-0.582 -2.3359,-0.582 z m 26.1172,0.1191 c 0.035,0 0.039,-0.01 0,-0.035 -0.024,-0.019 -0.016,-0.012 0,0.035 z m -27.1211,0 c 0.012,-0.047 0.019,-0.055 0,-0.037 -0.04,0.032 -0.033,0.041 0,0.037 z m 73.5957,-0.1211 c -0.6294,0 -0.973,0.1122 -1.0098,0.1211 0.027,-0.022 -0.02,0 -0.02,0.3008 v 63.6465 c 0,0.2393 0.037,0.2709 0.061,0.3046 0.062,0.016 0.3658,0.1172 0.9707,0.1172 h 19.668 c 0.5058,0 0.7964,-0.1035 0.9004,-0.1777 0.104,-0.074 0.1309,-0.093 0.1309,-0.3418 v -0.9336 c 0,-0.9016 -0.2559,-1.4098 -0.8262,-1.8125 -0.5703,-0.4027 -1.5641,-0.6699 -3.0039,-0.6699 h -8.6289 a 0.75769325,0.75769325 0 0 1 -0.7578,-0.7578 v -58.1485 c 0,-0.3827 -0.1646,-0.6758 -0.8536,-1.0566 a 0.75769325,0.75769325 0 0 1 -0.018,-0.01 c -0.6504,-0.3835 -1.411,-0.582 -2.336,-0.582 z m 28.7266,0 c -0.629,0 -0.9753,0.1125 -1.0118,0.1211 0.029,-0.023 -0.018,0 -0.018,0.3008 v 63.6465 c 0,0.309 0.037,0.301 0.031,0.2949 0.1354,0.039 0.6032,0.1269 1.3867,0.1269 h 12.1289 c 4.432,0 7.8921,-0.6829 10.3789,-1.9765 2.4727,-1.2864 3.5567,-2.9303 3.5567,-5.2227 v -50.1406 c 0,-0.873 -0.2392,-1.7094 -0.7481,-2.5567 a 0.75769325,0.75769325 0 0 1 -0.012,-0.01 c -0.4956,-0.8539 -1.272,-1.6183 -2.3789,-2.2871 -1.1029,-0.6664 -2.5337,-1.2166 -4.291,-1.6289 a 0.75769325,0.75769325 0 0 1 -0.018,-0.01 c -1.6781,-0.4365 -3.7424,-0.6621 -6.1836,-0.6621 z m -52.418,3.1016 c 1.6348,0 2.9202,0.2558 3.8535,0.9257 0.8482,0.5784 1.4121,1.406 1.4121,2.336 v 51.7129 c 0,0.9343 -0.5546,1.7707 -1.4023,2.3828 -0.8976,0.6532 -2.152,0.8808 -3.7852,0.8808 -1.6838,0 -2.9826,-0.2302 -3.9238,-0.8672 a 0.75769325,0.75769325 0 0 1 -0.018,-0.012 c -0.8478,-0.612 -1.4023,-1.4505 -1.4023,-2.3847 v -51.7129 c 0,-0.9155 0.5212,-1.7448 1.3242,-2.3301 0.941,-0.6793 2.2525,-0.9296 3.9414,-0.9296 z m 60.6582,0.8339 h 4.4297 c 1.6337,0 2.9188,0.256 3.8515,0.9239 0.8511,0.5785 1.416,1.4082 1.416,2.3398 v 50.0918 c 0,0.8949 -0.514,1.7032 -1.3027,2.3164 -0.8751,0.6804 -2.0825,0.9453 -3.5762,0.9453 h -4.8183 a 0.75769325,0.75769325 0 0 1 -0.7578,-0.7578 v -55.1015 a 0.75769325,0.75769325 0 0 1 0.7578,-0.7579 z m -50.3906,72.7579 c -2.1257,2e-4 -4.0612,0.2091 -5.8086,0.6191 a 0.75769325,0.75769325 0 0 1 -0.01,0 c -1.7031,0.3798 -3.1336,0.9135 -4.2949,1.586 a 0.75769325,0.75769325 0 0 1 -0.012,0.01 c -1.1654,0.6443 -2.0308,1.3903 -2.627,2.2305 -0.5928,0.8353 -0.8691,1.6955 -0.8691,2.6563 0,3.5361 0.4561,6.7999 1.3652,9.7988 0.9204,3.0043 2.0733,5.8771 3.4531,8.6211 1.4411,2.7631 2.9585,5.4276 4.5528,7.9941 1.6678,2.6014 3.2033,5.2359 4.6113,7.9043 1.4703,2.6885 2.6788,5.4789 3.625,8.3672 0.9601,2.8978 1.4394,6.0081 1.4394,9.3223 0,0.9343 -0.5666,1.7669 -1.4218,2.3457 -0.9333,0.6317 -2.2105,0.8691 -3.8457,0.8691 -1.586,0 -2.8399,-0.2425 -3.7657,-0.8691 -0.8546,-0.5784 -1.4238,-1.41 -1.4238,-2.3457 v -13.75 c 0,-0.1272 -0.01,-0.1595 -0.1328,-0.2696 a 0.75769325,0.75769325 0 0 1 -0.037,-0.033 c -0.1791,-0.1809 -0.384,-0.3119 -0.6504,-0.4082 a 0.75769325,0.75769325 0 0 1 -0.055,-0.021 c -0.286,-0.1292 -0.6297,-0.228 -1.0371,-0.2852 a 0.75769325,0.75769325 0 0 1 -0.014,0 c -0.3826,-0.06 -0.7315,-0.09 -1.0468,-0.09 h -4.5879 c -0.4975,0 -0.8088,0.09 -0.9043,0.1445 -0.095,0.055 -0.047,-0.028 -0.047,0.08 v 14.832 c 0,0.9683 0.2611,1.8557 0.8086,2.7246 0.5972,0.8343 1.4587,1.5901 2.6172,2.2618 1.1638,0.6422 2.5944,1.161 4.2988,1.541 1.7492,0.3785 3.7413,0.5722 5.9766,0.5722 2.184,0 4.1529,-0.1929 5.9043,-0.5722 1.7572,-0.3806 3.2127,-0.9004 4.373,-1.541 1.1628,-0.6743 2.0277,-1.4334 2.625,-2.2715 v 0 c 0.597,-0.8712 0.875,-1.753 0.875,-2.7129 0,-3.7027 -0.4571,-7.1012 -1.3672,-10.1992 -0.9202,-3.1652 -2.0966,-6.1488 -3.5254,-8.9532 a 0.75769325,0.75769325 0 0 1 0,-0.01 c -1.3871,-2.8237 -2.9024,-5.5166 -4.5449,-8.0782 a 0.75769325,0.75769325 0 0 1 -0.01,-0.012 c -1.6116,-2.6271 -3.1452,-5.2385 -4.6015,-7.834 a 0.75769325,0.75769325 0 0 1 -0.012,-0.014 c -1.417,-2.6523 -2.5986,-5.3409 -3.545,-8.0644 -0.9619,-2.7679 -1.4414,-5.7029 -1.4414,-8.7929 0,-0.9164 0.5614,-1.7268 1.4024,-2.334 0.9332,-0.6738 2.223,-0.9297 3.8633,-0.9297 1.6337,0 2.9188,0.2559 3.8515,0.9238 0.8511,0.5786 1.416,1.4082 1.416,2.3399 v 14.1425 c 0,0.1913 0.038,0.2836 0.1328,0.3965 0.095,0.1121 0.2807,0.2457 0.6036,0.3613 0.8133,0.271 1.559,0.4004 2.2382,0.4004 h 4.5079 c 0.5266,0 0.8638,-0.091 0.9746,-0.1523 0.1109,-0.061 0.057,0.026 0.057,-0.072 v -15.3222 c 0,-0.9608 -0.2764,-1.821 -0.8691,-2.6563 -0.5912,-0.8331 -1.4754,-1.5773 -2.6914,-2.2226 a 0.75769325,0.75769325 0 0 1 -0.012,-0.01 c -1.2156,-0.6757 -2.702,-1.2112 -4.4589,-1.5918 a 0.75769325,0.75769325 0 0 1 -0.016,0 c -1.7459,-0.4096 -3.706,-0.6189 -5.8847,-0.6191 v 0 z m -81.8985,0.9824 c -0.925,0 -1.717,0.1978 -2.4297,0.5918 -0.6129,0.3356 -0.7734,0.6125 -0.7734,1.1035 v 62.125 c 0,0.2815 0.032,0.3229 0.2012,0.4336 0.1695,0.1108 0.5756,0.2325 1.2187,0.2325 h 5.5977 c 0.6719,0 1.1024,-0.1229 1.2851,-0.2383 0.1827,-0.1153 0.211,-0.1527 0.211,-0.4277 v -63.4511 c 0,-0.141 -0.015,-0.2102 -0.025,-0.252 -0.1049,-0.012 -0.4734,-0.1191 -1.002,-0.1191 z m 5.2852,0.1191 c 0.039,0 0.048,0 0.01,-0.037 -0.025,-0.019 -0.018,-0.011 -0.01,0.037 z m 10.1679,-0.1191 c -0.5312,0 -0.9031,0.1103 -1.0058,0.1212 -0.01,0.041 -0.024,0.1093 -0.023,0.25 v 63.6972 c 0,0.246 0.037,0.2634 0.08,0.2969 0.025,0.01 0.3873,0.1231 1.0274,0.1231 h 4.1211 c 1.0387,0 1.8545,-0.2061 2.4922,-0.5821 a 0.75769325,0.75769325 0 0 1 0.016,-0.01 c 0.6698,-0.3703 0.8093,-0.635 0.7773,-1.1016 a 0.75769325,0.75769325 0 0 1 0,-0.025 l -1.4004,-38.3067 a 0.75769325,0.75769325 0 0 1 1.4903,-0.2168 l 10.0195,38.6114 c 0.1438,0.4543 0.4396,0.8092 1.0371,1.1328 0.5927,0.3209 1.3427,0.4981 2.2832,0.4981 h 4.1191 c 0.6402,0 1.0059,-0.1188 1.0293,-0.1231 0.044,-0.034 0.08,-0.051 0.08,-0.2969 v -63.6973 c 0,-0.1406 -0.013,-0.2089 -0.023,-0.25 -0.1027,-0.011 -0.4746,-0.1211 -1.0059,-0.1211 h -4.3535 c -0.9249,0 -1.7193,0.1981 -2.4316,0.5918 -0.6059,0.3319 -0.7286,0.566 -0.6953,1.0508 a 0.75769325,0.75769325 0 0 1 0,0.025 l 1.4003,38.3067 a 0.75769325,0.75769325 0 0 1 -1.4902,0.2188 l -10.0976,-38.6133 c -0.1479,-0.4671 -0.4226,-0.7963 -0.9571,-1.082 a 0.75769325,0.75769325 0 0 1 -0.023,-0.014 c -0.5357,-0.3124 -1.2217,-0.4863 -2.1055,-0.4863 z m 26.1192,0.1212 c 0.037,0 0.045,0 0,-0.037 -0.023,-0.018 -0.016,-0.011 0,0.037 z m -27.125,0 c 0.012,-0.047 0.018,-0.054 0,-0.037 -0.041,0.032 -0.033,0.041 0,0.037 z m 91.3789,-0.1212 c -0.6291,0 -0.9723,0.1118 -1.0098,0.1212 0.027,-0.022 -0.02,-0.01 -0.02,0.2988 v 63.6484 c 0,0.3072 0.05,0.3251 0.02,0.3008 0.035,0.01 0.3793,0.1192 1.0098,0.1192 h 4.2773 c 0.925,0 1.6855,-0.1985 2.336,-0.5821 a 0.75769325,0.75769325 0 0 1 0.019,-0.01 c 0.6885,-0.3806 0.8516,-0.6725 0.8516,-1.0568 v -22.3457 a 0.75769325,0.75769325 0 0 1 0.7578,-0.7578 h 4.2773 c 2.184,0 4.151,-0.193 5.9024,-0.5723 1.7611,-0.3815 3.2516,-0.9039 4.4707,-1.5508 1.2094,-0.6743 2.0922,-1.432 2.6836,-2.2617 v 0 c 0.5964,-0.8709 0.8769,-1.7545 0.8769,-2.7129 v -25.4883 c 0,-0.9598 -0.278,-1.8204 -0.8711,-2.6562 a 0.75769325,0.75769325 0 0 1 -0.012,-0.01 c -0.5994,-0.8738 -1.4645,-1.6488 -2.6309,-2.3242 -1.1614,-0.6726 -2.588,-1.2063 -4.291,-1.586 -1.696,-0.3781 -3.6402,-0.5722 -5.8242,-0.5722 z m 37.0254,0 c -0.925,0 -1.7194,0.1982 -2.4317,0.5918 -0.6125,0.3353 -0.7714,0.6112 -0.7714,1.1035 v 62.125 c 0,0.282 0.032,0.3232 0.2011,0.4336 0.1688,0.1105 0.5737,0.2325 1.2168,0.2325 h 5.5977 c 0.6719,0 1.1037,-0.1225 1.2871,-0.2383 0.1833,-0.1157 0.2109,-0.1532 0.2109,-0.4277 v -63.4511 c 0,-0.1408 -0.014,-0.2104 -0.025,-0.252 -0.1033,-0.011 -0.4735,-0.1191 -1.0039,-0.1191 z m 5.2851,0.1191 c 0.038,0 0.046,0 0,-0.037 -0.023,-0.018 -0.016,-0.01 0,0.037 z m 7.5215,-0.1191 c -0.5061,0 -0.7973,0.1041 -0.9004,0.1777 -0.1031,0.074 -0.1289,0.091 -0.1289,0.3399 v 0.9335 c 0,0.902 0.2563,1.4096 0.8262,1.8125 0.5698,0.403 1.5624,0.6719 3.002,0.6719 h 4.9765 a 0.75769325,0.75769325 0 0 1 0.7578,0.7579 v 59.1778 c 0,0.313 0.057,0.3735 0.1504,0.4453 0.09,0.048 0.4995,0.1719 1.1914,0.1719 h 5.752 c 0.6459,0 1.0581,-0.1191 1.2285,-0.2266 0.1703,-0.1075 0.1914,-0.1324 0.1914,-0.3906 v -59.1778 a 0.75769325,0.75769325 0 0 1 0.7578,-0.7578 h 4.586 c 1.3602,0 2.324,-0.2547 2.9199,-0.6562 0.6399,-0.4296 0.9062,-0.9408 0.9062,-1.8282 v -0.9316 c 0,-0.2491 -0.026,-0.2679 -0.1289,-0.3418 -0.1033,-0.074 -0.3946,-0.1777 -0.9004,-0.1777 z m 33.7031,0 c -0.6292,0 -0.9758,0.113 -1.0117,0.1212 0.027,-0.022 -0.018,-0.01 -0.018,0.2988 v 63.6484 c 0,0.3159 0.047,0.3004 0.035,0.2929 -0.054,-0.034 0.094,0.038 0.3535,0.072 0.2597,0.034 0.6356,0.055 1.1074,0.055 h 19.2032 c 0.5057,0 0.797,-0.1039 0.9004,-0.1778 0.1033,-0.074 0.1289,-0.093 0.1289,-0.3417 v -0.9316 c 0,-0.8865 -0.2602,-1.3673 -0.8907,-1.7656 a 0.75769325,0.75769325 0 0 1 -0.037,-0.025 c -0.5968,-0.4272 -1.5466,-0.6934 -2.9004,-0.6934 h -8.6289 a 0.75769325,0.75769325 0 0 1 -0.7578,-0.7579 v -24.5059 a 0.75769325,0.75769325 0 0 1 0.7578,-0.7578 h 7.1524 c 1.354,0 2.3038,-0.2662 2.9004,-0.6933 a 0.75769325,0.75769325 0 0 1 0.018,-0.014 c 0.6466,-0.4341 0.9082,-0.9296 0.9082,-1.7774 v -0.9803 c 0,-0.2252 -0.015,-0.2254 -0.1192,-0.2969 -0.1041,-0.072 -0.403,-0.1739 -0.9121,-0.1739 h -9.9492 a 0.75769325,0.75769325 0 0 1 -0.7578,-0.7578 v -25.1446 a 0.75769325,0.75769325 0 0 1 0.7578,-0.7578 h 8.6289 c 1.3538,0 2.3036,-0.2661 2.9004,-0.6933 a 0.75769325,0.75769325 0 0 1 0.02,-0.014 c 0.6467,-0.4341 0.9082,-0.9296 0.9082,-1.7774 v -0.9315 c 0,-0.2491 -0.026,-0.2679 -0.1289,-0.3418 -0.1034,-0.074 -0.3947,-0.1777 -0.9004,-0.1777 z m -75.2949,3.9355 h 4.4317 c 1.6331,0 2.918,0.2536 3.8515,0.922 0.8511,0.5786 1.416,1.4082 1.416,2.3398 v 25.3417 c 0,0.8965 -0.5165,1.7037 -1.3046,2.3164 -0.8746,0.68 -2.0807,0.9454 -3.5743,0.9454 h -4.8203 a 0.75769325,0.75769325 0 0 1 -0.7578,-0.7579 v -30.3496 a 0.75769325,0.75769325 0 0 1 0.7578,-0.7578 z m -182.8281,56.1758 c -1.9972,0 -3.4328,0.3013 -4.2812,0.7814 -0.8135,0.4891 -1.1016,0.9825 -1.1016,1.75 0,0.7674 0.2887,1.263 1.1016,1.7519 0.8484,0.48 2.284,0.7813 4.2812,0.7813 2.0551,0 3.497,-0.3096 4.2754,-0.7754 a 0.75769325,0.75769325 0 0 1 0.016,-0.01 c 0.8736,-0.4967 1.1719,-0.9929 1.1719,-1.75 0,-0.7572 -0.2977,-1.2511 -1.1719,-1.7481 a 0.75769325,0.75769325 0 0 1 -0.016,-0.01 c -0.7784,-0.4658 -2.2203,-0.7754 -4.2754,-0.7754 z m 17.2012,0 c -1.9971,0 -3.4351,0.3015 -4.2832,0.7814 -0.8134,0.4891 -1.1016,0.9825 -1.1016,1.75 0,0.7674 0.2888,1.263 1.1016,1.7519 0.8481,0.4798 2.2861,0.7813 4.2832,0.7813 2.0553,0 3.4971,-0.3096 4.2754,-0.7754 a 0.75769325,0.75769325 0 0 1 0.016,-0.01 c 0.8736,-0.4967 1.1719,-0.9929 1.1719,-1.75 0,-0.7572 -0.2977,-1.2511 -1.1719,-1.7481 a 0.75769325,0.75769325 0 0 1 -0.016,-0.01 c -0.7783,-0.4658 -2.2201,-0.7754 -4.2754,-0.7754 z m 17.1992,0 c -1.9973,0 -3.433,0.3013 -4.2813,0.7814 -0.8135,0.4891 -1.1015,0.9825 -1.1015,1.75 0,0.7674 0.2886,1.263 1.1015,1.7519 0.8483,0.48 2.284,0.7813 4.2813,0.7813 2.0551,0 3.497,-0.3096 4.2754,-0.7754 a 0.75769325,0.75769325 0 0 1 0.016,-0.01 c 0.8736,-0.4967 1.1719,-0.9929 1.1719,-1.75 0,-0.7572 -0.2977,-1.2511 -1.1719,-1.7481 a 0.75769325,0.75769325 0 0 1 -0.016,-0.01 c -0.7784,-0.4658 -2.2203,-0.7754 -4.2754,-0.7754 z m 33.248,16.5801 c -2.3334,2e-4 -4.3704,0.227 -6.1074,0.666 a 0.75769325,0.75769325 0 0 1 -0.012,0 c -1.7566,0.4121 -3.214,0.9633 -4.375,1.6348 -1.1117,0.6732 -1.928,1.4312 -2.4746,2.2656 -0.5538,0.8455 -0.8067,1.6703 -0.8067,2.5312 v 52.0567 c 0,0.7977 0.2352,1.6027 0.7481,2.457 0.4939,0.8226 1.2754,1.5939 2.3848,2.2969 1.1619,0.7029 2.6182,1.2846 4.375,1.7285 1.7341,0.4382 3.8263,0.6641 6.2675,0.6641 2.438,0 4.5264,-0.2408 6.2559,-0.709 a 0.75769325,0.75769325 0 0 1 0.012,0 c 1.7568,-0.444 3.1849,-1.0253 4.2891,-1.7227 a 0.75769325,0.75769325 0 0 1 0.014,-0.01 c 1.1663,-0.7062 1.9756,-1.466 2.4648,-2.2481 0.5125,-0.8536 0.7461,-1.6582 0.7461,-2.457 v -52.0567 c 0,-0.8609 -0.253,-1.6857 -0.8067,-2.5312 -0.5483,-0.8372 -1.3644,-1.5972 -2.4804,-2.2715 -1.0987,-0.6639 -2.5536,-1.2162 -4.3633,-1.6289 a 0.75769325,0.75769325 0 0 1 -0.02,0 c -1.737,-0.439 -3.7739,-0.6658 -6.1075,-0.666 v 0 z m 23.6954,0.9336 c -0.629,0 -0.9723,0.1118 -1.0098,0.1212 0.029,-0.023 -0.019,-10e-5 -0.019,0.3007 v 63.5489 c 0,0.3073 0.057,0.3713 0.066,0.3867 0.029,0.01 0.3423,0.1328 0.9629,0.1328 h 4.2773 c 0.9248,0 1.6853,-0.1984 2.3359,-0.582 a 0.75769325,0.75769325 0 0 1 0.018,-0.01 c 0.6885,-0.3807 0.8516,-0.6723 0.8516,-1.0566 v -27.5528 a 0.75769325,0.75769325 0 0 1 0.7578,-0.7578 h 7.1523 c 1.4398,0 2.4336,-0.2673 3.0039,-0.6699 0.5703,-0.4028 0.8262,-0.9111 0.8262,-1.8125 v -0.9337 c 0,-0.2485 -0.027,-0.2675 -0.1308,-0.3417 -0.104,-0.074 -0.3946,-0.1777 -0.9004,-0.1777 h -9.9512 a 0.75769325,0.75769325 0 0 1 -0.7578,-0.7579 v -25.1446 a 0.75769325,0.75769325 0 0 1 0.7578,-0.7578 h 8.6308 c 1.4398,0 2.4322,-0.2673 3.002,-0.6699 0.5698,-0.4025 0.8262,-0.9108 0.8262,-1.8125 v -0.9336 c 0,-0.2492 -0.025,-0.2679 -0.1289,-0.3418 -0.1033,-0.074 -0.3946,-0.1777 -0.9004,-0.1777 z m 43.1269,0 c -0.5058,0 -0.7971,0.1039 -0.9004,0.1777 -0.1034,0.074 -0.1289,0.093 -0.1289,0.3418 v 0.9336 c 0,0.9017 0.2564,1.41 0.8262,1.8125 0.5697,0.4026 1.5622,0.6699 3.0019,0.6699 h 4.9766 a 0.75769325,0.75769325 0 0 1 0.7578,0.7579 v 59.1778 c 0,0.3131 0.059,0.3761 0.1504,0.4472 0.09,0.048 0.4977,0.1719 1.1895,0.1719 h 5.7539 c 0.6459,0 1.0568,-0.1194 1.2265,-0.2266 0.1696,-0.1072 0.1914,-0.1319 0.1914,-0.3906 v -59.1797 a 0.75769325,0.75769325 0 0 1 0.7578,-0.7578 h 4.5879 c 1.3603,0 2.3217,-0.2544 2.918,-0.6562 0.641,-0.4302 0.9082,-0.9398 0.9082,-1.8262 v -0.9336 c 0,-0.2492 -0.026,-0.2679 -0.1289,-0.3418 -0.1033,-0.074 -0.3946,-0.1777 -0.9004,-0.1777 z m 33.5469,0 c -0.533,0 -0.9049,0.1087 -1.0059,0.1191 -0.011,0.041 -0.023,0.112 -0.023,0.2539 v 63.6953 c 0,0.246 0.039,0.2658 0.082,0.2989 0.023,0 0.3871,0.1211 1.0274,0.1211 h 4.1191 c 1.0387,0 1.8544,-0.2061 2.4922,-0.5821 0.6213,-0.3664 0.793,-0.6716 0.793,-1.164 v -28.4356 a 0.75769325,0.75769325 0 0 1 0.7578,-0.7578 h 8.6289 a 0.75769325,0.75769325 0 0 1 0.7578,0.7578 v 28.4356 c 0,0.4924 0.1717,0.7976 0.793,1.164 0.6376,0.3759 1.4533,0.5821 2.4921,0.5821 h 4.1211 c 0.6412,0 1.0042,-0.1169 1.0274,-0.1211 0.043,-0.033 0.08,-0.053 0.08,-0.2989 v -63.6953 c 0,-0.1408 -0.017,-0.2101 -0.027,-0.2519 -0.1039,-0.012 -0.4725,-0.1211 -1.0019,-0.1211 h -4.3536 c -0.925,0 -1.6878,0.1987 -2.3378,0.582 a 0.75769325,0.75769325 0 0 1 -0.022,0.014 c -0.6116,0.3348 -0.7715,0.6131 -0.7715,1.1054 v 27.3047 a 0.75769325,0.75769325 0 0 1 -0.7578,0.7578 h -8.6289 a 0.75769325,0.75769325 0 0 1 -0.7578,-0.7578 v -27.3047 c 0,-0.4923 -0.1599,-0.7706 -0.7715,-1.1054 a 0.75769325,0.75769325 0 0 1 -0.022,-0.014 c -0.6506,-0.3837 -1.4112,-0.582 -2.336,-0.582 z m 26.1152,0.1212 c 0.038,0 0.047,0 0.01,-0.037 -0.025,-0.019 -0.018,-0.011 -0.01,0.037 z m -27.1211,0 c 0.012,-0.046 0.02,-0.053 0,-0.035 -0.04,0.031 -0.034,0.039 0,0.035 z m 37.3106,-0.1191 c -0.6289,0 -0.9723,0.1118 -1.0098,0.1211 0.029,-0.023 -0.02,-10e-5 -0.02,0.3007 v 63.6465 c 0,0.3156 0.047,0.3004 0.035,0.293 -0.053,-0.033 0.096,0.04 0.3555,0.074 0.2594,0.034 0.6344,0.055 1.1055,0.055 h 19.2011 c 0.5057,0 0.7964,-0.1034 0.9004,-0.1777 0.104,-0.074 0.1309,-0.093 0.1309,-0.3418 v -0.9336 c 0,-0.8864 -0.26,-1.3673 -0.8906,-1.7656 a 0.75769325,0.75769325 0 0 1 -0.037,-0.024 c -0.5954,-0.4263 -1.5479,-0.6914 -2.9024,-0.6914 h -8.6289 a 0.75769325,0.75769325 0 0 1 -0.7578,-0.7578 v -24.5078 a 0.75769325,0.75769325 0 0 1 0.7578,-0.7578 h 7.1523 c 1.3547,0 2.3068,-0.2651 2.9024,-0.6914 a 0.75769325,0.75769325 0 0 1 0.02,-0.016 c 0.6467,-0.4341 0.9082,-0.9278 0.9082,-1.7753 v -0.9844 c 0,-0.225 -0.015,-0.2234 -0.1191,-0.2949 -0.1042,-0.072 -0.4029,-0.1758 -0.9121,-0.1758 h -9.9512 a 0.75769325,0.75769325 0 0 1 -0.7578,-0.7578 v -25.1447 a 0.75769325,0.75769325 0 0 1 0.7578,-0.7557 h 8.6289 c 1.3545,0 2.307,-0.2652 2.9024,-0.6914 a 0.75769325,0.75769325 0 0 1 0.02,-0.016 c 0.6468,-0.4341 0.9082,-0.9297 0.9082,-1.7773 v -0.9336 c 0,-0.2486 -0.027,-0.2676 -0.1309,-0.3418 -0.104,-0.074 -0.3947,-0.1777 -0.9004,-0.1777 z m -136.67,3.1015 c 1.6349,0 2.9204,0.2559 3.8536,0.9258 0.8479,0.578 1.414,1.4046 1.414,2.336 v 51.7128 c 0,0.9349 -0.5564,1.7694 -1.4023,2.3809 -0.8978,0.6544 -2.1526,0.8828 -3.7871,0.8828 -1.6838,0 -2.9814,-0.2306 -3.9219,-0.8672 a 0.75769325,0.75769325 0 0 1 -0.019,-0.014 c -0.8472,-0.6116 -1.4044,-1.447 -1.4043,-2.3829 v -51.7128 c 0,-0.9154 0.5212,-1.7448 1.3242,-2.3301 0.9409,-0.6794 2.2527,-0.9297 3.9414,-0.9297 z m -108.8222,12.4121 c -2.6899,0.025 -5.5314,1.2926 -5.836,3.8301 -2.2331,16.8503 -4.0613,34.107 -5.4824,51.5663 -4.8724,0.609 -9.1364,0.6096 -8.5273,-2.4355 0.6089,-5.0754 -7.307,-5.0754 -7.916,0 -1.0153,9.1357 7.1045,10.9626 16.0371,10.3535 -0.6571,11.341 -1.0409,22.5496 -1.0586,33.8398 -0.3283,0.1117 -0.6599,0.2548 -0.9961,0.4688 -7.9176,4.8723 -15.8345,10.1516 -23.752,15.8359 -2.6391,-7.9175 -5.0758,-15.6329 -8.1211,-23.1445 -1.6241,-4.8723 -5.2792,-14.0066 -1.625,-18.8789 2.2332,-2.6393 14.4145,-1.0151 8.1211,3.8575 -3.8572,3.2482 2.0295,8.7286 5.8868,5.4804 14.82,-13.1959 -14.0064,-27.2041 -21.9239,-11.166 -4.8723,9.7446 -2.6407,24.3622 0.6074,33.0918 2.2332,5.6844 5.8877,12.9933 7.7149,18.8808 -12.3839,10.1507 -19.4884,19.4893 -23.3457,35.7305 -4.0603,17.6623 3.8557,55.2186 29.4355,47.707 11.1657,-3.4513 14.2115,-17.0523 15.2266,-27 1.421,-15.632 -2.0296,-31.0609 -6.293,-46.2871 -1.421,-3.2482 -2.0298,-6.9022 -3.0449,-10.3535 7.2546,-5.6621 14.9426,-10.3999 22.1816,-15.1523 0.6846,31.7678 5.0259,65.818 21.084,93.7187 2.2332,4.2634 8.9344,0.6088 6.7012,-3.8574 -16.2412,-28.828 -15.0238,-59.0783 -15.6328,-91.5606 -0.2026,-12.993 -0.6084,-30.4503 0.2031,-43.4433 4.8723,-1.0153 5.4819,-1.4225 7.918,-2.4375 4.2634,-1.6241 2.435,-9.1359 -2.2344,-7.5117 -1.421,0.6089 -1.4201,0.8125 -5.4805,1.8281 1.4212,-16.8502 2.843,-32.4819 5.0762,-49.332 0.3045,-2.4363 -2.2339,-3.6543 -4.9238,-3.6289 z m 82.8105,67.1719 c -4.3902,-0.051 -8.8042,1.7248 -11.5449,5.2774 -5.4814,7.1055 -4.6704,17.8649 0.8106,24.5644 0.494,0.6298 0.9923,1.205 1.4941,1.7304 -0.029,0.1028 -0.071,0.1911 -0.094,0.3008 -1.421,5.6845 -6.7005,9.3387 -12.5878,10.9629 -0.2026,-5.6845 -1.828,-11.3696 -5.0762,-15.6329 -1.4211,-1.6241 -2.8408,-2.639 -4.4649,-3.4511 0,-0.609 -0.4069,-1.4203 -1.2187,-2.2325 -19.4893,-17.8652 -38.37,9.7445 -39.9942,28.2188 -1.421,12.1809 5.0765,23.3467 16.2422,28.4219 13.399,6.0905 24.9698,-3.0453 30.4512,-14.6171 1.6241,-3.8573 3.0452,-7.9165 3.6543,-12.1797 8.8505,-2.0714 16.9935,-7.9898 19.9102,-15.4785 5.9717,1.7353 12.5223,-0.6822 19.9023,-2.1856 12.7899,-2.6391 -2.6396,19.2873 -4.2637,23.1446 -6.6995,15.0231 -3.6535,27.6092 11.9785,30.8574 10.5061,1.9102 21.01,-4.4483 26.2735,-12.8164 0.8577,3.5088 1.996,6.9751 3.4687,10.3808 1.6241,4.4663 9.5414,1.6245 10.1504,-3.0449 0.2026,-8.3236 1.8274,-16.0376 4.0606,-23.9551 1.4211,-4.2633 3.0461,-8.1212 5.2793,-11.9785 8.1205,-14.0079 8.7285,-4.6685 8.7285,5.0762 0.2026,4.2633 -0.202,8.932 1.2187,13.1953 1.0153,4.0603 9.1351,4.2628 9.7442,-0.2031 1.6241,-9.1357 2.2334,-19.0825 7.7148,-27 0.609,-1.4212 6.9026,-7.7151 7.3086,-4.6699 0.2026,3.4512 -0.8134,6.902 -1.4219,10.1504 -2.4361,11.3687 -3.8563,25.3767 1.8282,35.7304 8.3236,14.8201 23.1431,-2.436 27.8125,-10.3535 3.2482,-6.4965 11.9778,-34.3098 7.1054,-36.543 -5.4814,-5.0753 -5.8867,4.2635 -5.8867,7.5118 0,12.9929 -6.0906,24.1594 -14.8203,33.7011 -8.7296,9.5417 -5.482,-26.1894 -4.6699,-29.8437 1.6241,-8.5266 0.4069,-23.3475 -13.1953,-19.4903 -7.1055,1.8271 -11.5722,7.7151 -15.0235,15.2266 -1.421,-5.6844 -3.8567,-9.9469 -9.7441,-9.3379 -8.9327,0.609 -14.4139,12.3826 -17.6621,19.082 -1.4212,3.0453 -2.233,5.6854 -3.2481,8.7305 0.2026,-13.805 4.465,-27.2044 8.3223,-40.4004 1.6241,-5.2784 -10.5556,-7.5107 -12.1797,-2.0293 -4.1703,14.5959 -7.581,30.194 -6.916,45.4551 -2.8756,9.7991 -7.8979,18.3048 -17.9531,21.1328 -9.1357,2.6392 -8.9331,-9.339 -7.918,-15.2265 1.4212,-9.1356 5.8865,-16.2409 8.9316,-24.5645 2.2332,-7.1055 -1.2173,-15.428 -9.3378,-16.0371 -6.2935,-0.6089 -13.4,3.8571 -19.6934,3.248 5.4814,-6.0904 12.7904,-16.2421 7.918,-23.1445 -2.6392,-3.7557 -7.0044,-5.6328 -11.3946,-5.6836 z m 0.8887,7.5078 c 3.8035,0.2758 3.628,5.1418 1.9785,8.9356 -1.6241,3.4513 -4.263,6.4975 -6.9023,9.1367 -1.6241,-4.6694 -1.8262,-16.241 1.625,-17.459 1.3323,-0.4949 2.4211,-0.6769 3.2988,-0.6133 z m -46.5391,16.1016 c 1.1281,0.044 2.3367,0.346 3.6309,0.9551 -1.6241,1.0153 -3.0455,2.4365 -4.0605,4.4668 -5.0754,9.5416 3.6529,18.2713 11.9765,21.7226 1.0153,0.2026 2.2333,0.6088 3.8574,0.8125 -1.0152,5.8874 -3.6544,11.1646 -7.5117,15.834 -6.4965,7.5115 -10.1498,6.2936 -16.4433,-0.4062 -5.2784,-5.2785 -6.7003,-16.6463 -5.0762,-23.5489 1.7763,-7.8159 5.7304,-20.1412 13.6269,-19.8359 z m 9.6328,6.4922 c 3.847,-0.3608 6.1778,11.3623 6.1778,13.1387 v 0 0.2031 c -0.8116,0 -1.4203,-0.2045 -2.2324,-0.4083 -4.6693,-1.0153 -10.558,-7.7132 -5.6856,-11.9765 0.6091,-0.609 1.1907,-0.9075 1.7402,-0.959 z m -90.8222,32.2226 c 2.233,6.6995 4.4677,15.2266 6.0918,22.3321 3.2483,13.805 6.0907,29.2333 -3.0449,41.6172 v 0 c -5.0754,6.6995 -9.7452,5.0755 -15.2266,-0.4062 -5.0754,-5.4814 -6.4965,-14.0098 -7.1055,-21.1153 -1.0153,-19.2863 6.0891,-30.4518 19.2852,-42.4297 z m 205.5918,33.9395 c -0.7251,0.9663 -1.4275,2.153 -2.1074,3.5586 -0.6569,1.3763 -1.2567,2.9267 -1.8008,4.6543 -0.5216,1.7277 -0.9409,3.6025 -1.2578,5.623 -0.317,1.9913 -0.4746,4.0852 -0.4746,6.2813 0,2.2255 0.1576,4.3487 0.4746,6.3691 0.3174,1.9912 0.7367,3.8505 1.2578,5.5781 0.5441,1.6984 1.1439,3.235 1.8008,4.6114 0.6797,1.4056 1.3822,2.606 2.1074,3.6015 l 1.6328,-1.0097 c -0.6571,-0.9664 -1.3029,-2.1218 -1.9375,-3.4689 -0.635,-1.3178 -1.2031,-2.782 -1.7012,-4.3925 -0.4984,-1.6398 -0.8947,-3.3975 -1.1894,-5.2715 -0.2947,-1.9033 -0.4414,-3.9092 -0.4414,-6.0175 0,-2.1084 0.1467,-4.0987 0.4414,-5.9727 0.295,-1.8741 0.6914,-3.618 1.1894,-5.2285 0.4985,-1.6399 1.0665,-3.1179 1.7012,-4.4355 0.634,-1.3471 1.2798,-2.5045 1.9375,-3.4708 z m 200.1211,0.043 c -0.2717,0.204 -0.544,0.3938 -0.8164,0.5703 -0.2725,0.1757 -0.5448,0.3516 -0.8164,0.5273 0.6569,0.9663 1.3028,2.1238 1.9375,3.4707 0.6346,1.3177 1.1902,2.7957 1.666,4.4356 0.4985,1.6105 0.8947,3.368 1.1894,5.2715 0.317,1.874 0.4766,3.8643 0.4766,5.9726 0,2.1084 -0.1596,4.1006 -0.4766,5.9746 -0.2951,1.8741 -0.6914,3.6317 -1.1894,5.2715 -0.4758,1.6105 -1.0314,3.0748 -1.666,4.3926 -0.6348,1.3469 -1.2806,2.5024 -1.9375,3.4687 0.2716,0.1466 0.5439,0.2929 0.8164,0.4395 0.2724,0.1765 0.5447,0.3524 0.8164,0.5273 0.725,-0.9955 1.4275,-2.1959 2.1074,-3.6015 0.68,-1.3763 1.2797,-2.913 1.8008,-4.6114 0.5215,-1.7276 0.9409,-3.5869 1.2578,-5.5781 0.3177,-2.0205 0.4766,-4.1437 0.4766,-6.3691 v 0 c 0,-2.1962 -0.1589,-4.2881 -0.4766,-6.2793 -0.3174,-2.0204 -0.7368,-3.8954 -1.2578,-5.623 -0.5212,-1.7277 -1.1209,-3.2799 -1.8008,-4.6563 -0.6798,-1.4055 -1.3822,-2.606 -2.1074,-3.6015 z m -61.7364,1.4492 c -1.133,0 -2.1521,0.2203 -3.0585,0.6601 -0.9064,0.4392 -1.6779,1.0238 -2.3125,1.7559 -0.6352,0.7321 -1.1218,1.5962 -1.461,2.5918 -0.3177,0.9663 -0.4765,1.977 -0.4765,3.0312 0,1.4934 0.3043,2.7075 0.916,3.6446 0.6345,0.9373 1.4166,1.7292 2.3457,2.373 0.9292,0.6146 1.9376,1.1561 3.0254,1.625 1.0877,0.4688 2.0962,1.0103 3.0254,1.625 0.9292,0.5861 1.7008,1.3036 2.3125,2.1524 0.6346,0.8492 0.9511,1.9616 0.9511,3.3379 0,1.113 -0.2159,2.0651 -0.6465,2.8554 -0.4078,0.761 -0.9278,1.3905 -1.5625,1.8886 -0.6114,0.4981 -1.2908,0.8636 -2.039,1.0977 -0.7255,0.2049 -1.3943,0.3086 -2.0059,0.3086 -0.5663,0 -1.145,-0.074 -1.7344,-0.2207 -0.5894,-0.1458 -1.168,-0.3354 -1.7343,-0.5704 -0.544,-0.2347 -1.0747,-0.5144 -1.5957,-0.8359 -0.499,-0.3231 -0.9539,-0.6452 -1.3614,-0.9668 l -1.0527,2.6368 c 0.2724,0.234 0.6351,0.5117 1.0879,0.834 0.4761,0.3215 1.0192,0.6445 1.6309,0.9667 0.6345,0.2932 1.3493,0.5412 2.1425,0.7462 0.8158,0.2339 1.6986,0.3515 2.6504,0.3515 1.3371,10e-5 2.528,-0.2055 3.5703,-0.6152 1.0651,-0.4393 1.9604,-1.0395 2.6856,-1.8008 0.7251,-0.7906 1.2808,-1.7271 1.666,-2.8105 0.3852,-1.1129 0.5762,-2.3582 0.5762,-3.7344 0,-1.3763 -0.1808,-2.5474 -0.543,-3.5137 -0.3624,-0.9663 -0.8384,-1.8009 -1.4277,-2.5039 -0.5896,-0.7024 -1.2584,-1.2869 -2.0059,-1.7558 -0.7478,-0.4978 -1.5174,-0.9377 -2.3105,-1.3184 -0.7702,-0.3806 -1.5292,-0.7462 -2.2774,-1.0976 -0.7475,-0.3812 -1.4165,-0.7916 -2.0058,-1.2305 -0.5896,-0.4394 -1.0656,-0.9516 -1.4278,-1.5371 -0.3622,-0.6153 -0.5429,-1.3466 -0.5429,-2.1953 0,-0.703 0.1126,-1.3481 0.3398,-1.9337 0.2494,-0.6152 0.6019,-1.1568 1.0547,-1.625 0.453,-0.4689 0.9962,-0.8344 1.6308,-1.0977 0.6573,-0.2632 1.3932,-0.3965 2.209,-0.3965 0.9065,0 1.8353,0.1483 2.7871,0.4414 0.9745,0.2932 1.8593,0.643 2.6524,1.0528 l 0.8496,-2.4141 v 0 c -0.2494,-0.1466 -0.6121,-0.3225 -1.0879,-0.5274 -0.4757,-0.2049 -1.0082,-0.3946 -1.5976,-0.5703 -0.5892,-0.2049 -1.2224,-0.3658 -1.9024,-0.4824 -0.6569,-0.1466 -1.3028,-0.2207 -1.9375,-0.2207 z m -134.4199,0.1758 v 31.3632 h 2.3438 v -14.3632 h 13.8008 v 14.3632 h 2.3105 v -4.041 c 0.023,-1.6692 0.035,-3.4854 0.035,-5.4472 v -6.1935 c 0.023,-2.1669 0.035,-4.2315 0.035,-6.1934 v -5.4472 -4.041 h -2.3789 v 14.1445 h -13.8027 v -14.1445 z m 23.7012,0 v 31.3632 h 15.7734 v -2.8125 h -13.4609 v -11.5507 h 11.625 v -2.8125 h -11.625 v -11.4629 h 12.9844 v -2.7246 z m 18.9883,0 v 31.3632 h 6.6621 c 0.9971,0 1.9595,-0.1589 2.8887,-0.4805 0.9293,-0.3511 1.745,-0.8653 2.4472,-1.539 0.7253,-0.6735 1.3039,-1.5357 1.7344,-2.5899 0.4305,-1.0541 0.6465,-2.2858 0.6465,-3.6914 0,-1.1415 -0.1487,-2.1366 -0.4434,-2.9863 -0.2724,-0.8787 -0.6453,-1.6256 -1.1211,-2.2403 -0.4534,-0.615 -0.986,-1.1115 -1.5976,-1.4921 -0.5891,-0.3814 -1.2013,-0.661 -1.836,-0.836 0.7026,-0.264 1.2918,-0.6295 1.7676,-1.0976 0.4758,-0.4982 0.8616,-1.0691 1.1563,-1.7129 0.2947,-0.6736 0.5087,-1.3911 0.6445,-2.1524 0.1358,-0.7902 0.2051,-1.6093 0.2051,-2.459 0,-1.4641 -0.1827,-2.7095 -0.5449,-3.7343 -0.3402,-1.0253 -0.8373,-1.8601 -1.4942,-2.5039 -0.6572,-0.644 -1.4517,-1.1112 -2.3808,-1.4043 -0.9065,-0.2932 -1.9256,-0.4414 -3.0586,-0.4414 z m 17.957,0 v 31.3632 h 2.3125 v -12.5625 h 3.6367 0.7481 c 0.2486,0 0.4857,-0.03 0.7129,-0.092 0.2494,0.5271 0.5448,1.1566 0.8847,1.8887 0.3622,0.7319 0.7359,1.5082 1.1211,2.3281 0.3857,0.8196 0.782,1.6524 1.1895,2.502 0.4082,0.8493 0.794,1.6547 1.1562,2.416 0.3638,0.7616 0.6924,1.4498 0.9864,2.0645 0.2939,0.6148 0.531,1.0977 0.7128,1.4492 h 2.8223 c -0.2041,-0.4098 -0.4764,-0.965 -0.8164,-1.668 -0.34,-0.7032 -0.7136,-1.4794 -1.1211,-2.3281 -0.4083,-0.8492 -0.8382,-1.7426 -1.291,-2.6797 -0.431,-0.9374 -0.8503,-1.8307 -1.2578,-2.6796 -0.4083,-0.8784 -0.7831,-1.6839 -1.1231,-2.416 -0.3399,-0.7323 -0.6122,-1.3169 -0.8164,-1.7559 1.4053,-0.8493 2.4138,-2.0652 3.0254,-3.6465 0.6116,-1.5813 0.918,-3.249 0.918,-5.0059 0,-1.5813 -0.2269,-2.944 -0.6797,-4.0859 -0.4309,-1.1421 -1.0201,-2.0942 -1.7676,-2.8555 -0.7252,-0.7612 -1.5639,-1.3165 -2.5156,-1.668 -0.9518,-0.3805 -1.9372,-0.5722 -2.957,-0.5722 z m 18.791,0 v 31.3632 h 15.7715 v -2.8125 h -13.4609 v -11.5507 h 11.625 v -2.8125 h -11.625 v -11.4629 h 12.9843 v -2.7246 z m 46.9961,0.088 h -2.4551 c -0.4307,1.4056 -0.9066,2.9285 -1.4277,4.5684 -0.499,1.6398 -0.9961,3.2937 -1.4941,4.9629 -0.4987,1.6398 -0.9871,3.2663 -1.4629,4.8769 -0.476,1.6105 -0.9058,3.0886 -1.291,4.4356 -0.386,1.3177 -0.7147,2.4751 -0.9864,3.4707 -0.2709,0.9667 -0.4407,1.6684 -0.5097,2.1074 l -0.2735,1.3183 c -0.044,-0.2348 -0.089,-0.4552 -0.1347,-0.6601 -0.044,-0.2041 -0.091,-0.4234 -0.1368,-0.6582 -0.1811,-0.7029 -0.4311,-1.5963 -0.748,-2.6797 -0.2955,-1.0835 -0.6241,-2.2546 -0.9863,-3.5137 -0.363,-1.2884 -0.7468,-2.6354 -1.1543,-4.041 -0.408,-1.4055 -0.8062,-2.7819 -1.1914,-4.1289 -0.9064,-3.1625 -1.892,-6.5154 -2.9571,-10.0586 h -2.2422 c 0.023,0.1174 0.079,0.3674 0.17,0.748 0.1135,0.352 0.2372,0.79 0.373,1.3165 0.1358,0.5272 0.2845,1.0982 0.4434,1.7128 0.1811,0.6154 0.3618,1.2449 0.5429,1.8887 0.4085,1.4935 0.8614,3.1493 1.3594,4.9649 -0.7023,2.4596 -1.3481,4.6845 -1.9375,6.6757 -0.2486,0.8492 -0.4967,1.6839 -0.7461,2.504 -0.2264,0.8202 -0.4302,1.5671 -0.6113,2.2401 -0.1803,0.6446 -0.34,1.186 -0.4766,1.625 -0.1128,0.439 -0.1801,0.7028 -0.2031,0.791 -0.023,0.088 -0.079,0.3068 -0.1699,0.6583 -0.091,0.3215 -0.1367,0.527 -0.1367,0.6151 l -0.2715,-1.3182 c -0.09,-0.4101 -0.2706,-1.0982 -0.543,-2.0645 -0.2494,-0.9663 -0.5679,-2.108 -0.9531,-3.4258 -0.3853,-1.347 -0.8152,-2.8114 -1.291,-4.3925 -0.4538,-1.6106 -0.9297,-3.2508 -1.4278,-4.92 -0.499,-1.669 -0.998,-3.323 -1.4961,-4.9628 -0.4985,-1.6692 -0.962,-3.2216 -1.3925,-4.6563 h -2.6172 c 1.6996,5.4757 3.3414,10.9224 4.9277,16.3397 1.5863,5.4174 3.23,10.8778 4.9297,16.383 0.2034,-0.7322 0.4405,-1.5515 0.7129,-2.4591 0.2724,-0.9077 0.5557,-1.8442 0.8496,-2.8106 0.2947,-0.9663 0.5901,-1.934 0.8848,-2.9004 0.3169,-0.9956 0.6123,-1.9612 0.8847,-2.8984 0.6572,-2.1669 1.324,-4.3916 2.0039,-6.6758 0.023,-0.1181 0.047,-0.2369 0.07,-0.3534 0.023,-0.088 0.045,-0.1901 0.068,-0.3066 0.023,-0.1144 0.045,-0.2023 0.068,-0.2637 0.023,0.1458 0.059,0.3067 0.1054,0.4824 0.068,0.1765 0.1239,0.3228 0.17,0.4395 l 5.3027,17.7011 c 0.2041,-0.732 0.5105,-1.8013 0.918,-3.207 0.4303,-1.4055 0.9168,-3.0146 1.4609,-4.8301 0.5437,-1.8155 1.1329,-3.7784 1.7676,-5.8867 0.6348,-2.1084 1.2806,-4.2452 1.9375,-6.4121 0.657,-2.1963 1.3028,-4.3488 1.9375,-6.457 0.6573,-2.1085 1.2696,-4.0713 1.8359,-5.8868 z m 45.0723,2.5039 v 2.5039 h 2.8887 v 26.2675 h 2.039 v -28.7714 z m -126.5059,0.1328 h 3.6387 c 1.4503,0 2.6287,0.4379 3.5352,1.3164 0.9064,0.8784 1.3593,2.2998 1.3593,4.2617 0,1.7277 -0.3748,3.1627 -1.123,4.3047 -0.7478,1.1127 -1.859,1.6679 -3.332,1.668 h -4.0782 z m 17.959,0.088 h 3.6387 c 0.9068,0 1.7099,0.1896 2.4121,0.5704 0.7029,0.3515 1.2816,0.8344 1.7344,1.4492 0.4527,0.5858 0.7923,1.2602 1.0195,2.0215 0.2494,0.7616 0.375,1.5359 0.375,2.3261 0,0.6446 -0.092,1.3621 -0.2734,2.1524 -0.1589,0.7611 -0.4543,1.4943 -0.8848,2.1973 -0.4079,0.6738 -0.974,1.2447 -1.6992,1.7128 -0.7252,0.4689 -1.631,0.7032 -2.7188,0.7032 h -3.6035 z m 98.3613,0.3946 c -0.7251,0.6738 -1.5072,1.4069 -2.3457,2.1973 -0.8157,0.7905 -1.642,1.6527 -2.4804,2.5898 -0.8385,0.9078 -1.6436,1.8892 -2.4141,2.9434 -0.7704,1.0542 -1.4497,2.1822 -2.0391,3.3828 -0.5895,1.1713 -1.0655,2.4303 -1.4277,3.7773 -0.34,1.347 -0.5098,2.7663 -0.5098,4.2598 v 0 c 0,1.4934 0.2039,2.8248 0.6114,3.9961 0.4304,1.1423 0.9861,2.1101 1.666,2.9004 0.7025,0.7909 1.4847,1.4048 2.3457,1.8438 0.8839,0.4098 1.7791,0.6152 2.6855,0.6152 0.9971,0 1.9365,-0.248 2.8203,-0.7461 0.8833,-0.4973 1.6549,-1.1718 2.3125,-2.0215 0.6573,-0.8492 1.1773,-1.8307 1.5625,-2.9433 0.3853,-1.1421 0.5782,-2.3562 0.5782,-3.6446 0,-1.2884 -0.1929,-2.4888 -0.5782,-3.6015 -0.3851,-1.1416 -0.9177,-2.1387 -1.5976,-2.9883 -0.6571,-0.8496 -1.4267,-1.5085 -2.3106,-1.9766 -0.8838,-0.498 -1.8251,-0.7461 -2.8222,-0.7461 -0.6797,0 -1.313,0.2055 -1.9024,0.6153 -0.5892,0.3809 -1.0776,0.8932 -1.4629,1.5371 0.2491,-0.5857 0.6454,-1.2602 1.1895,-2.0215 0.5442,-0.7906 1.19,-1.6255 1.9375,-2.5039 0.7478,-0.8785 1.5865,-1.7856 2.5156,-2.7227 0.9291,-0.9371 1.9041,-1.8442 2.9239,-2.7226 z m 26.2657,0 c -0.9971,0 -1.9385,0.248 -2.8223,0.7461 -0.8837,0.4973 -1.6638,1.1719 -2.3438,2.0215 -0.6572,0.8491 -1.1792,1.8442 -1.5644,2.9863 -0.3852,1.1127 -0.5781,2.3132 -0.5781,3.6016 0,1.2884 0.1929,2.5045 0.5781,3.6464 0.3848,1.1416 0.9068,2.1367 1.5644,2.9864 0.6799,0.8196 1.46,1.4785 2.3438,1.9765 0.8838,0.4689 1.8252,0.7032 2.8223,0.7032 0.7023,0 1.3481,-0.1897 1.9375,-0.5704 0.5892,-0.3804 1.0757,-0.9082 1.4609,-1.582 -0.2491,0.586 -0.6454,1.2742 -1.1895,2.0644 -0.5441,0.7907 -1.19,1.6254 -1.9375,2.5039 -0.7478,0.8785 -1.5865,1.7857 -2.5156,2.7226 -0.9292,0.9078 -1.9021,1.8014 -2.9219,2.6797 0.1812,0.3223 0.3721,0.6603 0.5762,1.0117 0.2264,0.3515 0.4424,0.6863 0.6465,1.0078 1.0878,-1.0247 2.2767,-2.1666 3.5684,-3.4257 1.3143,-1.2883 2.5388,-2.7235 3.6718,-4.3046 1.1335,-1.5813 2.0748,-3.3077 2.8223,-5.1818 0.7705,-1.9032 1.1543,-3.9835 1.1543,-6.2382 0,-1.4935 -0.214,-2.8112 -0.6445,-3.9531 -0.4082,-1.1715 -0.9639,-2.153 -1.666,-2.9433 -0.6799,-0.7908 -1.462,-1.391 -2.3457,-1.8008 -0.8612,-0.439 -1.7334,-0.6582 -2.6172,-0.6582 z m 0.033,2.5038 c 0.725,0 1.4044,0.1897 2.039,0.5704 0.6347,0.3517 1.1902,0.8364 1.666,1.4512 0.4758,0.6152 0.8495,1.3465 1.1211,2.1953 0.2725,0.8199 0.4082,1.6977 0.4082,2.6348 0,0.9374 -0.1357,1.8309 -0.4082,2.6796 -0.2716,0.8202 -0.6453,1.5377 -1.1211,2.1524 -0.4758,0.6149 -1.0313,1.0977 -1.666,1.4492 -0.6345,0.3515 -1.3138,0.5274 -2.039,0.5274 -0.7247,0 -1.4146,-0.1759 -2.0723,-0.5274 -0.6343,-0.3517 -1.2024,-0.8345 -1.7012,-1.4492 -0.4758,-0.6148 -0.8596,-1.3323 -1.1543,-2.1524 -0.2724,-0.8491 -0.4101,-1.7426 -0.4101,-2.6796 0,-0.937 0.1377,-1.8148 0.4101,-2.6348 0.2947,-0.8494 0.6785,-1.5806 1.1543,-2.1953 0.4985,-0.6149 1.0666,-1.0997 1.7012,-1.4512 0.6571,-0.3806 1.3471,-0.5704 2.0723,-0.5704 z m -30.2422,9.8379 c 0.725,0 1.4044,0.1759 2.039,0.5273 0.6573,0.3517 1.2235,0.8365 1.6993,1.4512 0.498,0.6145 0.8838,1.3457 1.1562,2.1954 0.2939,0.8198 0.4414,1.6976 0.4414,2.6348 0,0.9365 -0.1475,1.8299 -0.4414,2.6796 -0.2724,0.8201 -0.6582,1.5377 -1.1562,2.1523 -0.4762,0.6149 -1.0424,1.1135 -1.6993,1.4943 -0.6345,0.3514 -1.3138,0.5272 -2.039,0.5272 -0.725,0 -1.4044,-0.1758 -2.0391,-0.5272 -0.6347,-0.381 -1.1902,-0.8795 -1.666,-1.4943 -0.4758,-0.6148 -0.8494,-1.3324 -1.1211,-2.1523 -0.2717,-0.8492 -0.4082,-1.7427 -0.4082,-2.6796 0,-0.937 0.1365,-1.8149 0.4082,-2.6348 0.2717,-0.8495 0.6453,-1.5806 1.1211,-2.1954 0.4759,-0.6148 1.0314,-1.0997 1.666,-1.4512 0.6344,-0.3514 1.3139,-0.5273 2.0391,-0.5273 z m 10.9238,0.6152 c -0.3622,0 -0.6897,0.1759 -0.9844,0.5274 -0.2716,0.3516 -0.4082,0.7754 -0.4082,1.2734 0,0.527 0.1366,0.9669 0.4082,1.3185 0.2947,0.3215 0.6222,0.4824 0.9844,0.4824 0.3392,0 0.6455,-0.1609 0.918,-0.4824 0.2947,-0.3513 0.4414,-0.7912 0.4414,-1.3185 0,-0.4982 -0.1467,-0.922 -0.4414,-1.2734 -0.2717,-0.3515 -0.578,-0.5274 -0.918,-0.5274 z m -119.6641,0.7012 c 0.7705,0 1.519,0.1167 2.2442,0.3516 0.748,0.2056 1.4043,0.5436 1.9707,1.0117 0.5891,0.4686 1.0546,1.0825 1.3945,1.8437 0.34,0.7614 0.5098,1.6704 0.5098,2.7246 0,0.9664 -0.1467,1.8148 -0.4414,2.5469 -0.2948,0.7317 -0.7036,1.3477 -1.2246,1.8457 -0.4985,0.469 -1.0877,0.8344 -1.7676,1.0977 -0.6798,0.2348 -1.4052,0.3515 -2.1758,0.3515 h -4.1465 v -11.7715 z m 119.6641,10.8965 c -0.3622,0 -0.6897,0.1758 -0.9844,0.5273 -0.2716,0.3507 -0.4082,0.7735 -0.4082,1.2716 0,0.5271 0.1366,0.9668 0.4082,1.3184 0.2947,0.3215 0.6222,0.4824 0.9844,0.4824 0.3392,0 0.6455,-0.1609 0.918,-0.4824 0.2947,-0.3514 0.4414,-0.7912 0.4414,-1.3184 0,-0.4973 -0.1467,-0.9201 -0.4414,-1.2716 -0.2717,-0.3515 -0.578,-0.5273 -0.918,-0.5273 z"
         transform="matrix(0.08687223,0,0,0.08687223,-771.73694,163.81133)"
         id="path6370"
         inkscape:connector-curvature="0" />
      <path
         style="fill:#1a1a1a;fill-opacity:1;stroke-width:1.24094892"
         d="m 1519.7637,911.40234 c -0.405,-0.0217 -0.8092,0.039 -1.1524,0.16797 -0.686,0.259 -1.2153,0.69394 -1.7168,1.23047 -1.0026,1.07284 -1.9174,2.62772 -2.8593,4.79297 -0.4513,1.036 -0.7463,1.66418 -0.9961,2.14063 -0.1531,-0.12548 -0.023,-0.0222 -0.2774,-0.32032 -0.6273,-0.73326 -1.5116,-1.90803 -2.7051,-3.48828 -0.9289,-1.22997 -1.6723,-2.14566 -2.375,-2.81055 -0.351,-0.33267 -0.683,-0.61262 -1.164,-0.83593 -0.4807,-0.22308 -1.3535,-0.36046 -2.0508,0.0684 -0.6955,0.42929 -0.9046,1.04309 -1.0195,1.51172 -0.1151,0.46965 -0.1415,0.91916 -0.1426,1.43359 0,1.03025 0.1242,2.31654 0.3418,3.97461 0.2152,1.63504 0.092,5.02574 -0.2774,6.92969 l -0.7597,3.91406 a 1.6392339,1.6392339 0 0 0 0.4375,1.45898 l 8.7031,8.89649 c 2.4056,2.45878 4.6531,4.67934 6.3516,6.28906 0.8495,0.80463 1.558,1.45441 2.1015,1.92187 0.2717,0.23368 0.4981,0.41928 0.7168,0.57813 0.1036,0.0806 0.2103,0.15195 0.3692,0.23828 0.081,0.0461 0.1713,0.0924 0.3359,0.14648 0.1646,0.0576 0.4119,0.16674 0.9414,0.0332 0.5376,-0.13353 0.5112,-0.20273 0.6563,-0.28906 0.1473,-0.0921 0.2997,-0.18888 0.4804,-0.3086 0.3592,-0.24058 0.8148,-0.55773 1.3496,-0.94336 1.0694,-0.7724 2.4521,-1.80861 3.9082,-2.93164 l 5.252,-4.04883 a 1.6392339,1.6392339 0 0 0 -0.2539,-2.75586 l -5.5664,-2.84765 c -1.5653,-0.80003 -2.6161,-1.47194 -3.2617,-1.96289 1.327,-1.21639 2.7536,-2.61165 4.0214,-4.11524 0.7886,-0.93585 1.4884,-1.83295 2.0215,-2.60547 0.2671,-0.38677 0.4908,-0.7383 0.6739,-1.08593 0.183,-0.34764 0.4025,-0.58583 0.3945,-1.35938 -0.01,-0.83571 -0.4786,-1.85111 -1.2676,-2.32422 -0.7885,-0.47311 -1.5955,-0.48376 -2.375,-0.38476 -1.5591,0.19684 -3.2999,0.93863 -5.4316,2.13672 -0.4386,0.24634 -0.7309,0.37277 -1.1211,0.57422 0.1174,-0.8668 0.2367,-1.76126 0.4082,-2.83594 0.3925,-2.4627 0.4934,-4.46614 0.3242,-6.0625 -0.1692,-1.59637 -0.4685,-2.98535 -1.8574,-3.79297 -0.3471,-0.20202 -0.7532,-0.3064 -1.1582,-0.32813 z m -67.0176,21.15625 c -6.1309,-0.0105 -12.1053,1.43892 -18.0215,4.3418 -13.2523,6.50277 -22.1467,18.99885 -23.75,33.36523 -0.7813,6.99925 -0.6173,8.01916 2.9141,18.28711 3.3703,9.79945 4.1713,11.3187 8.1015,15.37497 5.3064,5.4766 13.6239,10.1338 21.5782,12.0801 l 5.9316,1.4512 1.1465,7.8457 c 1.9738,13.5076 3.4729,25.6353 3.2265,26.1015 -0.1303,0.2466 -7.9485,1.5442 -17.375,2.8848 -9.4264,1.3405 -21.7874,3.1856 -27.4687,4.0996 -9.5787,1.5413 -10.5004,1.499 -12.6758,-0.5781 -3.296,-3.1473 -8.866,-4.1263 -13.8164,-2.4277 -10.1451,3.4794 -12.8089,15.685 -5.1367,23.5293 6.5145,6.6604 17.9786,4.4026 22.8574,-4.502 1.2723,-2.3217 1.9352,-2.6466 6.334,-3.1094 2.7017,-0.2845 14.0876,-1.5095 25.3027,-2.7226 11.2152,-1.2131 21.2119,-2.2409 22.2168,-2.2754 1.3366,-0.051 2.1696,0.9274 3.1055,3.6484 0.8098,2.3552 1.7103,3.5612 2.4551,3.293 0.6464,-0.234 4.7505,-2.7804 9.1211,-5.6602 7.2503,-4.7769 8.3346,-5.9123 12.3632,-12.955 l 4.4141,-7.7188 -4.2168,0.5059 c -2.8214,0.3393 -4.3903,0 -4.7402,-1.0118 -0.288,-0.8361 -1.3447,-7.5998 -2.3496,-15.0292 -1.7242,-12.755 -1.9372,-13.5288 -3.8106,-13.8672 -3.2554,-0.5888 -6.6716,-5.3406 -9.2695,-12.8946 l -2.4375,-7.08786 -4.0899,0.28125 c -10.6067,0.72463 -19.9268,-5.77505 -23.666,-16.50195 -3.3353,-9.56888 -1.5573,-17.62682 5.5625,-25.20703 6.1107,-6.50576 17.9003,-8.71706 26.3555,-4.94336 l 3.1445,1.40234 8.6426,-4.67578 8.6406,-4.67578 -5.9472,-3.35156 c -8.6179,-4.85582 -16.76,-7.2834 -24.6426,-7.29688 z m 46.0918,1.47657 c -0.7239,-0.0122 -1.4583,0.0814 -2.168,0.40429 -1.5744,0.72405 -2.4971,2.12534 -4.0019,4.51172 l -2.752,4.36719 a 1.6392339,1.6392339 0 0 0 0.2305,2.03516 l 4.0976,4.08007 c 1.8091,1.80254 3.132,2.97942 4.7247,3.70508 1.5926,0.7252 3.2604,0.88243 5.4804,0.9043 2.448,0.023 6.1216,0.8622 7.293,1.48047 1.8034,0.95082 3.719,1.34124 5.3672,1.21094 0.8242,-0.0691 1.6172,-0.22749 2.3515,-0.82032 0.7344,-0.59282 1.1277,-1.91556 0.8008,-2.86523 -0.3914,-1.1373 -1.0898,-1.94943 -2.1191,-3.27149 -1.0291,-1.32194 -2.3469,-2.88905 -3.75,-4.47656 -2.8061,-3.17512 -5.847,-6.36014 -7.8047,-7.86914 -1.097,-0.84492 -2.3616,-1.60949 -3.582,-2.20508 -1.2205,-0.59512 -2.3245,-1.04023 -3.4493,-1.14844 -0.2377,-0.023 -0.4774,-0.0389 -0.7187,-0.043 z m -9.4024,15.25976 c -1.697,-0.0505 -3.3035,0.13358 -4.9375,0.63086 v 0.006 c -2.1783,0.66304 -4.3692,1.83678 -7.0781,3.60352 l -3.9043,2.54687 a 1.6392339,1.6392339 0 0 0 0.166,2.83985 l 5.8379,2.90429 c 1.5775,0.78506 3.0407,1.56844 4.0938,2.18164 0.526,0.3062 0.9532,0.57318 1.2168,0.75391 0.092,0.0575 0.1214,0.0923 0.164,0.12109 0.046,0.0806 0.093,0.19837 0.1446,0.28125 0.1416,0.22332 0.3077,0.46571 0.5,0.73047 0.3844,0.53067 0.8663,1.14807 1.373,1.75586 0.6539,0.78506 1.2539,1.42884 2.0957,1.86719 0.8415,0.43857 2.0889,0.46212 2.961,-0.0352 1.744,-0.9842 2.5553,-2.78487 3.9961,-5.73633 0.6872,-1.40747 0.9665,-2.47016 1.289,-3.58593 0.023,0.28317 -0.069,0.57543 0.024,0.83789 0.8311,2.47605 3.2465,4.70446 7.6132,8.83593 2.2327,2.1123 4.3332,4.00667 5.9414,5.375 0.8047,0.68377 1.4833,1.2351 2.0215,1.63477 0.2694,0.20029 0.4954,0.36037 0.7383,0.50195 0.1209,0.0691 0.2386,0.13727 0.4297,0.21094 0.1911,0.0691 0.4363,0.30682 1.2246,0.0352 0.9877,-0.33958 1.2027,-1.04956 1.3496,-1.50782 0.1474,-0.45814 0.2042,-0.8953 0.2422,-1.38867 0.081,-0.98535 0.047,-2.16809 -0.068,-3.47265 -0.2244,-2.60924 -0.7538,-5.64416 -1.5586,-7.98243 -1.9852,-5.77227 -8.2128,-9.54275 -13.6015,-7.68945 -1.4006,0.48232 -2.5265,0.91874 -3.4414,1.77149 -0.1784,0.16576 -0.2302,0.44409 -0.3672,0.6582 0.081,-1.27049 -0.069,-2.50441 -0.4863,-3.73242 -0.5169,-1.50313 -1.0506,-2.71689 -2.1582,-3.56446 -1.1074,-0.84722 -2.409,-1.07546 -4.0879,-1.26367 -0.5901,-0.0662 -1.1668,-0.10816 -1.7325,-0.125 z m -20.875,13.97266 c -1.1953,0.0566 -2.3045,0.24787 -3.2988,0.58984 v 0.006 c -2.3589,0.81154 -3.9919,2.985 -5.1543,5.58399 -1.1625,2.5991 -1.8167,5.73065 -1.6836,8.85351 0.057,1.4854 0.1541,2.93287 0.2519,4.08594 0.046,0.57671 0.1044,1.0786 0.1504,1.48828 0.058,0.4098 0.046,0.62054 0.211,1.08789 0.1784,0.5203 0.69,1.05202 1.2187,1.24414 0.5295,0.19109 0.982,0.14127 1.3477,0.0469 0.7321,-0.17958 1.2664,-0.55455 1.7988,-1.04493 -0.023,0.023 0.5104,-0.38937 1.209,-0.86132 0.6987,-0.47196 1.6356,-1.08309 2.7363,-1.78516 2.2017,-1.4031 5.0586,-3.16821 8.0254,-4.94922 l 10.832,-6.5039 A 1.6392339,1.6392339 0 0 0 1486,968.19727 l -5.2246,-2.23047 c -4.2766,-1.82544 -8.6288,-2.86908 -12.2149,-2.69922 z m 27.4297,5.21094 c -0.4413,-0.0229 -0.8637,0.0545 -1.25,0.17968 v 0 c -1.6032,0.50419 -3.0851,1.67721 -5.6406,3.6211 -1.6243,1.23549 -2.8735,2.19495 -3.8282,3.1582 -0.9542,0.96348 -1.6913,2.05343 -1.789,3.36328 -0.092,1.30986 0.43,2.48849 1.1972,3.69336 0.7667,1.2051 1.8373,2.53254 3.2403,4.25 1.3587,1.66359 2.6652,3.14842 3.707,4.23242 0.5203,0.54218 0.9688,0.97936 1.3672,1.31836 0.1991,0.16922 0.3773,0.31314 0.6133,0.45703 0.1174,0.0691 0.2473,0.14899 0.4648,0.22266 0.2176,0.0691 0.5691,0.20558 1.1504,0.006 0.8576,-0.29469 1.3643,-0.87579 1.7832,-1.48242 0.419,-0.60779 0.7488,-1.30318 1.0527,-2.08789 0.6067,-1.56955 1.0812,-3.49868 1.418,-5.55664 0.6734,-4.11593 0.882,-8.60672 -0.1621,-11.71485 -0.3522,-1.05557 -0.6258,-1.92287 -1.3594,-2.71875 -0.366,-0.39828 -0.9135,-0.75619 -1.5156,-0.88281 -0.1505,-0.0317 -0.3001,-0.0509 -0.4473,-0.0586 z m 7.42,4.26757 a 1.6392339,1.6392339 0 0 0 -0.6407,0.12305 1.6392339,1.6392339 0 0 0 -0.9902,1.23242 l -1.5547,8.88086 c -1.5181,8.68402 -1.421,9.89275 1.5059,18.44918 0.8403,2.4439 1.686,4.6353 2.4062,6.2403 0.3603,0.8023 0.6811,1.4515 0.9942,1.9687 0.1565,0.259 0.2964,0.4796 0.5312,0.7305 0.1174,0.1255 0.2519,0.2688 0.5293,0.4219 0.2763,0.1531 0.8274,0.3369 1.4258,0.1308 0.4835,-0.1657 0.5971,-0.3193 0.7617,-0.4609 0.1646,-0.1416 0.3114,-0.2866 0.4668,-0.4512 0.3097,-0.3292 0.6478,-0.7352 1.0254,-1.2148 0.7574,-0.9589 1.6561,-2.2044 2.5488,-3.5449 3.3227,-4.9905 4.7081,-10.20346 4.0098,-15.18169 -0.6987,-4.97834 -3.4635,-9.62743 -8.0332,-13.55078 l -3.9336,-3.37891 a 1.6392339,1.6392339 0 0 0 -1.0527,-0.39453 z m -26.711,5.32227 c -0.2167,-0.0162 -0.4698,0.005 -0.7676,0.10937 -1.8446,0.64578 -3.7539,1.9834 -5.4004,3.44336 -0.823,0.72981 -1.5634,1.48763 -2.1562,2.24219 -0.5928,0.75513 -1.0869,1.44026 -1.25,2.45117 -0.1681,1.04176 -0.1939,2.04638 0.1641,3.02149 0.358,0.97499 1.1598,1.79276 2.1074,2.25586 1.8952,0.92665 4.3268,0.98223 8.043,0.84179 4.3057,-0.16115 6.4201,-0.21117 7.8125,-0.50586 0.3476,-0.0691 0.6684,-0.14969 1.0644,-0.39257 0.396,-0.24289 0.9064,-0.86916 0.957,-1.51758 0.046,-0.64923 -0.1797,-1.03466 -0.3339,-1.29492 -0.1554,-0.26016 -0.2991,-0.43521 -0.4395,-0.61133 -0.4466,-0.55829 -2.3849,-2.99481 -4.2891,-5.39258 -1.0014,-1.26151 -2.0215,-2.36298 -2.9238,-3.17578 -0.4512,-0.40635 -0.863,-0.74075 -1.3008,-1.00781 -0.2187,-0.13353 -0.4421,-0.25487 -0.7402,-0.35157 -0.1491,-0.046 -0.3301,-0.099 -0.5469,-0.11523 z m 11.6035,14.75 c -0.4005,-0.0268 -0.826,-0.0159 -1.3027,0.0117 -1.9067,0.11511 -4.6638,0.5908 -9.041,1.46484 -5.3937,1.07745 -8.0326,1.56627 -9.6895,2.23242 v -0.002 c -0.8288,0.33267 -1.7093,0.90122 -1.9844,1.9043 -0.2751,1.00262 0.069,1.62698 0.2344,2.11908 0.7528,2.1585 2.1525,4.4082 3.7773,6.3867 1.6254,1.979 3.4235,3.6696 5.2969,4.584 1.7705,0.8645 3.1668,1.4407 4.7285,1.2071 1.5616,-0.2337 2.7053,-1.2292 3.9883,-2.5606 1.6683,-1.7311 3.3858,-4.7671 4.8047,-7.75 0.7091,-1.4914 1.3165,-2.94504 1.7265,-4.19722 0.2049,-0.62621 0.3611,-1.19932 0.4532,-1.74219 0.092,-0.54332 0.1954,-1.02638 -0.057,-1.76367 -0.2555,-0.74477 -1.0297,-1.44186 -1.7812,-1.68359 -0.3759,-0.12087 -0.7518,-0.18418 -1.1524,-0.21094 z m 7.0332,5.75586 c -0.094,-0.004 -0.1891,-1.4e-4 -0.2832,0.0137 -1.2474,0.1839 -1.4722,0.85167 -1.8515,1.41408 -0.3799,0.5628 -0.7682,1.2741 -1.2578,2.2246 -0.6044,1.1733 -1.0328,2.4567 -1.2735,3.6738 -0.2417,1.2171 -0.3745,2.3118 0.021,3.4609 0.3131,0.9117 0.5797,1.7477 1.6231,2.3203 0.5214,0.2867 1.2372,0.3391 1.7597,0.1895 0.5226,-0.1485 0.8923,-0.4089 1.2246,-0.6875 0.7506,-0.6285 1.1179,-1.3895 1.4571,-2.2402 0.3384,-0.8507 0.595,-1.8051 0.7734,-2.7949 0.3568,-1.9795 0.4879,-4.0155 -0.1152,-5.7539 -0.1151,-0.3281 -0.2206,-0.64206 -0.5176,-1.02538 -0.2599,-0.33642 -0.9004,-0.76524 -1.5606,-0.79297 z m 23.8438,2.23628 c -0.2659,0.046 -0.4553,0.1644 -0.5762,0.2266 -0.4915,0.2521 -0.6651,0.4659 -0.9414,0.7422 -0.2763,0.2751 -0.574,0.6036 -0.9101,0.9961 -0.6723,0.7839 -1.4883,1.8149 -2.4141,3.0254 -1.8517,2.421 -4.1278,5.5601 -6.3711,8.7734 -2.2434,3.2135 -4.4508,6.4954 -6.1699,9.1953 -0.8599,1.3499 -1.5966,2.5532 -2.1602,3.545 -0.5629,0.9922 -0.9453,1.6684 -1.166,2.4355 -0.4627,1.6098 -0.4171,3.3395 -0.068,4.8887 0.35,1.5491 0.8612,3.054 2.459,3.834 1.1235,0.5479 1.9421,0.3082 2.9278,0.092 0.9853,-0.2165 2.0881,-0.5912 3.2714,-1.0782 2.3669,-0.9738 5.0318,-2.3974 7.2598,-4 5.8388,-4.2 9.526,-10.1009 10.0664,-16.4277 0.2302,-2.701 -0.1967,-6.1674 -0.8828,-9.209 -0.343,-1.5208 -0.7509,-2.9193 -1.2187,-4.0664 -0.4674,-1.1454 -0.7194,-2.1191 -2.0664,-2.7793 -0.4329,-0.2141 -0.7763,-0.2386 -1.0411,-0.1914 z m 27.3008,29.0157 c -4.7804,-0.1341 -9.621,1.9304 -12.4082,6.25 -1.1401,1.7667 -3.1834,3.1802 -5.9825,4.1426 -4.1137,1.4147 -4.3238,1.7001 -6.6113,8.8847 l -2.3633,7.4219 7.4805,-2.2695 7.4805,-2.2696 3.0566,2.7754 c 1.6817,1.5273 4.8255,3.0757 6.9863,3.4395 11.4972,1.9371 20.2657,-11.1166 14.4004,-21.4395 -2.5392,-4.4692 -7.2586,-6.8014 -12.039,-6.9355 z m -31.7383,6.0254 c -0.2192,0.017 -0.4244,0.064 -0.5977,0.1425 h 0.01 c -0.9267,0.4213 -1.3171,1.0519 -1.793,1.834 0.035,-0.058 -0.827,0.8563 -2.0176,1.7226 -1.1909,0.8668 -2.7645,1.8905 -4.4589,2.9043 -3.3889,2.0278 -7.3298,4.0435 -9.6817,4.8633 -1.7953,0.6262 -3.2213,1.3218 -4.4375,2.5117 -1.2161,1.1898 -2.159,2.7341 -3.4082,5.0489 -0.823,1.5251 -1.4989,2.9407 -1.9473,4.0586 -0.2244,0.5594 -0.3909,1.0314 -0.498,1.4882 -0.058,0.228 -0.1035,0.4436 -0.1035,0.7774 0,0.1669 0.011,0.3705 0.125,0.664 0.1151,0.2936 0.3943,0.7225 0.8594,0.9493 0.4535,0.221 0.5822,0.1871 0.7675,0.2089 0.1865,0.023 0.3666,0.033 0.5704,0.033 0.4074,0.012 0.8973,0.01 1.4668,-0.012 1.1373,-0.034 2.5827,-0.1326 4.0996,-0.2754 1.4915,-0.1404 2.9037,-0.2801 3.9804,-0.3906 0.5388,-0.058 0.9928,-0.1042 1.336,-0.1445 0.3395,-0.035 0.4313,-0.034 0.7617,-0.1035 0.4063,-0.081 0.3876,-0.1183 0.5234,-0.1758 0.1359,-0.058 0.2897,-0.125 0.4727,-0.209 0.3672,-0.1692 0.8453,-0.3984 1.4121,-0.6758 1.1327,-0.5537 2.6135,-1.2963 4.1836,-2.1035 7.4116,-3.8102 11.1526,-9.0249 11.3926,-16.1738 0.069,-1.991 0,-3.4884 -0.2969,-4.6758 -0.1497,-0.594 -0.3193,-1.1476 -0.8672,-1.6934 -0.411,-0.4092 -1.192,-0.6263 -1.8496,-0.5761 z m -11.9102,28.7168 -6.7285,0.3125 c -4.8786,0.2256 -11.1117,1.6591 -16.6738,3.5273 -5.5616,1.8682 -10.3109,3.9259 -12.627,6.4648 -0.7528,0.8265 -1.3952,1.6716 -1.8652,2.4493 -0.2348,0.389 -0.428,0.7556 -0.5742,1.1523 -0.1462,0.3971 -0.383,0.8066 -0.092,1.6602 0.3488,1.0129 1.1671,1.5117 1.9277,1.8183 0.7609,0.3062 1.6039,0.4661 2.5684,0.5547 1.9289,0.1773 4.3365,0.046 7.0078,-0.4004 2.5601,-0.4236 4.9977,-0.846 5.8301,-1.0371 0.5617,-0.1289 1.0126,-0.3389 1.6582,-0.6348 0.6446,-0.2969 1.4129,-0.6819 2.2754,-1.1308 1.7248,-0.899 3.8197,-2.0578 5.9277,-3.2735 2.108,-1.2156 4.2268,-2.4832 5.9902,-3.5957 1.7634,-1.1119 3.1161,-2.0108 3.9453,-2.7363 l 2.586,-2.2597 a 1.6392339,1.6392339 0 0 0 -1.1563,-2.8711 z m -35.3125,18.3613 c -0.5053,0.024 -1.0187,0.074 -1.5507,0.1523 -2.1285,0.3166 -4.505,1.0541 -8.1973,2.3282 v 0 c -6.9285,2.3892 -9.6025,3.8273 -12.2617,6.6875 -1.6472,1.7719 -3.1482,3.9232 -4.166,5.789 -0.5088,0.9324 -0.8966,1.776 -1.1211,2.5801 -0.1151,0.4017 -0.1993,0.7899 -0.1601,1.3008 0.034,0.5111 0.3711,1.3669 1.1308,1.7324 0.3822,0.1842 0.4567,0.1519 0.5684,0.168 0.1151,0.011 0.2065,0.022 0.3066,0.033 0.2026,0.012 0.4284,0.023 0.7012,0.023 0.5456,0.011 1.2638,0.01 2.125,0 1.7224,-0.023 4.0074,-0.093 6.457,-0.1973 10.3537,-0.4466 11.8357,-0.8411 18.7813,-4.7637 2.8184,-1.5915 5.0251,-3.0843 6.6484,-4.5254 1.6235,-1.441 2.7383,-2.818 3.0781,-4.4648 0.3396,-1.6469 -0.5132,-3.3928 -1.916,-4.3926 -1.4023,-1.0003 -3.2932,-1.6106 -5.7676,-2.0566 -1.6956,-0.3056 -3.1423,-0.4677 -4.6582,-0.3965 z m 13.8262,15.8457 c -0.044,0.01 -0.088,0.034 -0.1309,0.078 -7.1666,7.3269 -10.7276,10.2161 -14.1113,11.4414 -3.7674,1.3644 -4.0055,1.6805 -3.8144,5.086 0.6045,10.7673 6.9729,59.2641 17.5097,133.3398 1.5998,11.2491 2.742,20.7974 2.5371,21.2188 -0.5571,1.1419 -11.7829,1.5806 -23.5195,0.9199 -18.3814,-1.0346 -37.7776,-5.8183 -54.1582,-13.3574 -7.6824,-3.5358 -18.5581,-10.5652 -18.8965,-11.4688 -1.6426,-4.3607 19.3884,-15.6886 9.4141,-16.1836 -9.9743,-0.4946 -58.248,-28.5757 -56.9238,-15.543 1.324,13.0326 17.4627,60.727 21.9414,66.9434 4.4787,6.2164 5.569,-11.3126 11.498,-15.2148 0.2697,-0.093 3.0522,2.1627 6.1836,5.0117 15.6508,14.2394 44.3714,30.7004 65.6152,37.6074 17.8231,5.7945 36.0456,7.7562 51.0645,5.4941 34.3677,-5.1762 76.9356,-34.5305 110.5273,-76.2168 l 7.1465,-8.8671 9.0137,9.1035 c 4.9459,3.7643 7.8119,4.3321 9.3691,3.623 1.5575,-0.7086 9.9022,-83.2114 2.4434,-74.1348 -15.0543,18.3196 -49.8996,34.7954 -51.9238,34.2969 -2.0244,-0.4982 0.923,2.6989 5.9902,7.3301 l 7.0742,6.4648 -9.1914,9.4961 c -15.4266,15.9375 -31.8857,27.2124 -51.5898,35.3418 -8.4323,3.4789 -24.4093,7.6605 -26.1172,6.834 -0.2922,-0.1412 -2.3474,-12.1226 -4.5684,-26.625 -4.214,-27.5167 -7.1772,-46.6749 -16.0293,-103.6719 -2.9154,-18.7723 -5.4266,-35.2051 -5.582,-36.5175 -0.136,-1.1487 -0.4628,-1.8951 -0.7715,-1.8301 z m -27.9883,4.9766 c -1.08,0.033 -2.2681,0.2216 -3.6074,0.457 -2.6785,0.4742 -5.8307,1.3246 -9.0391,2.4082 v 0 c -4.9907,1.6853 -10.0897,3.9121 -13.6777,6.2734 -2.9123,1.9165 -5.4646,3.961 -7.3418,5.8301 -0.9382,0.9347 -1.7099,1.8222 -2.2852,2.6777 -0.5756,0.8553 -1.0338,1.6512 -1.0234,2.7461 0.01,0.7483 0.5424,1.3445 0.9004,1.5704 0.358,0.2256 0.6386,0.2933 0.916,0.3554 0.556,0.122 1.1211,0.1488 1.8008,0.1465 1.3583,0 3.1102,-0.171 5.0664,-0.4922 1.9167,-0.3142 3.6897,-0.4647 5.0136,-0.459 0.6619,0 1.2138,0.046 1.5801,0.1035 0.3661,0.058 0.5429,0.2129 0.3438,0.059 0.2923,0.2314 0.6269,0.3113 0.9492,0.4356 -1.7192,0.2175 -3.5322,0.5771 -5.5117,1.2012 -7.8467,2.4728 -17.2611,7.7011 -22.5469,13.8574 -1.7261,2.0105 -3.0423,4.5476 -3.7735,6.8301 -0.366,1.1407 -0.5908,2.21 -0.5839,3.2265 0,0.5088 0.057,1.0115 0.2695,1.5352 0.2106,0.5237 0.6422,1.0915 1.2656,1.3965 0.8185,0.3994 1.0962,0.2261 1.5,0.1836 0.4041,-0.046 0.8381,-0.1236 1.3418,-0.2364 1.0072,-0.2267 2.278,-0.5843 3.7578,-1.039 2.9598,-0.9083 6.7354,-2.2073 10.5469,-3.6114 3.8115,-1.404 7.6527,-2.9088 10.7383,-4.2265 1.5427,-0.6585 2.896,-1.2705 3.9765,-1.8086 1.0809,-0.5387 1.8293,-0.918 2.4766,-1.4942 1.8603,-1.6549 3.2785,-3.8928 4.1504,-6.1836 0.8714,-2.2907 1.2659,-4.6371 0.5508,-6.7148 -0.3753,-1.0901 -1.2252,-1.9489 -2.1992,-2.4316 -0.6355,-0.3154 -1.3928,-0.359 -2.1211,-0.4649 0.7724,-0.1508 1.4957,-0.2311 2.3808,-0.5293 2.9098,-0.9807 6.4748,-2.7205 10.4883,-5.1269 5.3617,-3.2148 8.7314,-5.8078 10.1973,-8.6075 0.7332,-1.3997 0.8826,-3.0825 0.1562,-4.4355 -0.7263,-1.353 -2.0369,-2.2425 -3.6992,-2.9551 -0.907,-0.3891 -1.8789,-0.5131 -2.959,-0.4804 z m 92.7246,35.4589 c -0.3401,0.029 -0.6466,0.1149 -0.8965,0.2012 h -0.01 c -1.3363,0.4593 -1.8674,1.548 -2.2949,2.6972 -0.4271,1.15 -0.6947,2.5463 -0.834,4.1719 -0.092,1.0233 -0.1893,1.8481 -0.2871,2.6289 -0.8875,-0.5353 -1.9553,-1.197 -3.1602,-1.9824 -1.3828,-0.9013 -2.6305,-1.6713 -3.5625,-2.2051 -0.4662,-0.267 -0.8431,-0.4719 -1.1738,-0.625 -0.1658,-0.081 -0.2921,-0.1427 -0.5684,-0.2129 -0.1381,-0.034 -0.2856,-0.1282 -0.791,-0.023 -0.2521,0.046 -0.6686,0.2018 -0.9863,0.6035 -0.3166,0.4017 -0.3798,0.9296 -0.3418,1.2324 0.058,0.4397 0.069,0.3406 0.1152,0.4903 0.046,0.1507 0.1032,0.3397 0.1699,0.5722 0.1405,0.4651 0.3348,1.0996 0.5743,1.8633 0.4777,1.5287 1.1278,3.5741 1.8359,5.7715 l 2.5723,7.9765 a 1.6392339,1.6392339 0 0 0 0.8183,0.959 l 10.2461,5.1914 c 2.8227,1.43 5.4286,2.7302 7.3613,3.6778 0.9658,0.4742 1.7629,0.8592 2.3418,1.1308 0.289,0.1359 0.5206,0.2425 0.7071,0.3242 0.092,0.046 0.1723,0.081 0.2597,0.1036 0.046,0.012 0.093,0.035 0.1582,0.059 0.069,0.023 0.093,0.068 0.4649,0.08 0.6239,0.023 0.8435,-0.1788 1.0058,-0.2812 0.1624,-0.1036 0.252,-0.1846 0.336,-0.2617 0.1703,-0.1566 0.2987,-0.3015 0.4414,-0.4707 0.2855,-0.3373 0.6045,-0.7591 0.9648,-1.2598 0.7218,-1.0026 1.5998,-2.3126 2.4571,-3.6465 0.8575,-1.3339 1.6889,-2.683 2.3105,-3.7715 0.3108,-0.5444 0.5672,-1.0196 0.7617,-1.4258 0.092,-0.2037 0.1795,-0.3862 0.252,-0.5957 0.069,-0.2106 0.3218,-0.2817 0.08,-1.1914 -0.2613,-0.9693 -0.7469,-1.0379 -0.9864,-1.1602 -0.2394,-0.122 -0.4303,-0.1839 -0.6386,-0.2461 -0.4167,-0.122 -0.8892,-0.2184 -1.4512,-0.3105 -1.1235,-0.1853 -2.5799,-0.3413 -4.168,-0.4414 l -3.1855,-0.1992 1.5293,-3.2051 c 0.9957,-2.0896 1.6564,-3.7941 2.0019,-5.1875 0.1727,-0.6964 0.2721,-1.3136 0.2617,-1.9277 -0.011,-0.6147 -0.1135,-1.3099 -0.6718,-1.9297 -0.5606,-0.6205 -1.5193,-0.8141 -2.1778,-0.7071 -0.6584,0.1036 -1.1832,0.3755 -1.7382,0.7266 -1.1097,0.7022 -2.3274,1.8091 -3.7989,3.3965 l -0.7851,0.8457 -0.9766,-3.8555 c -0.7574,-2.9966 -1.179,-4.6679 -1.8359,-5.9004 -0.3281,-0.6158 -0.8225,-1.2467 -1.6055,-1.5351 -0.3914,-0.1445 -0.7653,-0.1735 -1.1055,-0.1446 z m -126.1445,14.4317 c -0.2888,-0.013 -0.5464,0.033 -0.8672,0.049 -0.6412,0.034 -1.3925,0.1212 -2.248,0.2559 -1.7113,0.2693 -3.8275,0.7254 -5.9961,1.3086 -0.9762,0.2624 -1.9161,0.5425 -2.8242,0.8418 -6.811,2.2424 -11.7687,5.5498 -14.6524,10.1035 -2.8838,4.5538 -3.5642,10.2178 -2.2734,16.7519 l 0.9082,4.5996 a 1.6392339,1.6392339 0 0 0 2.416,1.1075 l 3.3281,-1.8907 c 7.4292,-4.2211 14.4689,-10.1053 18.7149,-15.7304 2.4651,-3.2658 4.3546,-6.7618 5.3925,-9.7168 0.5192,-1.4775 0.8378,-2.8097 0.8516,-4.0371 0.01,-0.6136 -0.057,-1.2142 -0.3008,-1.8125 -0.2429,-0.5986 -0.7293,-1.2038 -1.3926,-1.5274 -0.4472,-0.2181 -0.7678,-0.2899 -1.0566,-0.3027 z m 116.0273,13.8554 c -0.6421,0.014 -1.2569,0.1002 -1.8554,0.2657 -2.3945,0.6619 -3.9451,2.6676 -5.1817,5.3886 l -1.7695,3.8907 a 1.6392339,1.6392339 0 0 0 0.8301,2.1777 l 9.9551,4.3984 c 2.745,1.2129 5.2691,2.3031 7.1386,3.0879 0.9347,0.3926 1.7041,0.7068 2.2657,0.9278 0.2808,0.1151 0.5061,0.1949 0.6972,0.2617 0.092,0.034 0.1778,0.059 0.2871,0.094 0.058,0.012 0.1148,0.033 0.2207,0.045 0.1036,0.023 0.165,0.1595 0.8223,-0.068 0.8967,-0.3085 1.4913,-0.8263 2.1973,-1.4609 0.7056,-0.6355 1.4335,-1.4011 2.1172,-2.2071 0.6837,-0.8058 1.3185,-1.647 1.8281,-2.4453 0.5099,-0.7989 0.9242,-1.4614 1.0762,-2.4043 0.1784,-1.1039 -0.1325,-2.2601 -0.7598,-3.207 -0.6262,-0.9474 -1.5261,-1.7515 -2.6797,-2.5352 -2.3075,-1.5672 -5.6874,-3.0623 -10.3496,-4.6992 -2.7389,-0.9616 -4.9133,-1.5531 -6.8399,-1.5098 z m -123.0839,11.4629 c -0.4773,-0.032 -0.9419,0.052 -1.3614,0.1914 v 0 c -1.7395,0.571 -3.3166,1.9303 -6.0605,4.1915 -5.1576,4.2504 -9.3663,11.5752 -9.5313,17.3203 -0.069,2.2742 0.8159,5.963 1.9297,9.2011 0.5445,1.582 1.0946,2.9956 1.5684,4.0489 0.236,0.5272 0.4458,0.9562 0.6679,1.3242 0.1152,0.1842 0.213,0.3484 0.4122,0.5625 0.1036,0.1036 0.2172,0.2355 0.4785,0.3828 0.2613,0.1462 0.8001,0.3389 1.3984,0.1328 0.5813,-0.2003 0.8509,-0.4424 1.2168,-0.7383 0.3661,-0.2947 0.7534,-0.6508 1.1777,-1.0664 0.8484,-0.8311 1.8344,-1.8975 2.8536,-3.0742 1.5832,-1.8277 3.0116,-3.8002 4.3007,-5.6426 -1.2303,1.8471 -2.3654,4.1963 -3.3515,6.9981 -1.9002,5.3986 -1.9054,7.3296 -0.024,12.789 1.3883,4.0366 3.3011,7.7419 5.4278,10.6739 2.1265,2.932 4.4111,5.1428 6.9609,6.0312 2.6976,0.9393 4.82,1.4201 6.6152,0.2129 0.8979,-0.6032 1.4047,-1.6921 1.4805,-2.7168 0.081,-1.0245 -0.1447,-2.0659 -0.543,-3.2402 -0.5433,-1.6121 -1.3518,-6.0674 -1.6093,-9.3321 -0.5537,-7.0157 -1.6242,-13.0931 -3.0157,-17.5468 -0.6964,-2.2269 -1.4605,-4.0475 -2.3691,-5.4356 -0.9082,-1.3881 -2.0631,-2.5474 -3.7148,-2.6055 v 0 c -0.5272,-0.023 -1.0487,0.069 -1.5351,0.2383 -1.5256,0.5272 -2.7331,1.7632 -3.8731,3.3437 0.221,-0.328 0.598,-0.7289 0.7891,-1.0351 1.8522,-2.9654 3.0932,-6.7922 3.6953,-10.5918 0.602,-3.7996 0.5884,-7.5434 -0.4199,-10.4766 -0.426,-1.2386 -0.7508,-2.2188 -1.5059,-3.084 -0.3776,-0.4328 -0.9329,-0.8301 -1.5762,-0.9843 -0.1608,-0.039 -0.3213,-0.063 -0.4804,-0.074 z m 119.0097,4.5703 c -1.1617,0.066 -2.3368,0.3885 -3.7148,0.8633 -2.366,0.8162 -4.7801,2.4907 -6.6778,4.2578 -0.9485,0.8841 -1.7566,1.7846 -2.3437,2.6954 -0.5871,0.9105 -1.1765,1.8914 -0.7109,3.2461 0.2233,0.648 0.6721,0.9006 0.9277,1.0214 0.2555,0.1209 0.4311,0.1568 0.5957,0.1856 0.3269,0.058 0.6075,0.068 0.9355,0.068 0.6573,0 1.4716,-0.056 2.4532,-0.1562 1.9632,-0.2061 4.5686,-0.6003 7.4043,-1.1367 2.7974,-0.5284 5.4269,-1.0213 7.4062,-1.3887 1.9794,-0.3672 3.5399,-0.6396 3.4473,-0.627 0.3683,-0.046 0.7615,-0.134 1.1972,-0.4414 0.4352,-0.3085 0.8363,-0.9833 0.8536,-1.5742 0.034,-1.1815 -0.5477,-1.6287 -1.045,-2.1211 -0.9968,-0.9842 -2.5302,-1.9612 -4.6582,-3.0781 -1.9046,-1.0003 -3.341,-1.6334 -4.9062,-1.791 -0.3914,-0.039 -0.7768,-0.045 -1.1641,-0.024 z m 8.8223,11.9688 c -0.2498,-2e-4 -0.5391,0.01 -0.8867,0.022 -0.6965,0.034 -1.6207,0.104 -2.7207,0.1973 -2.2,0.1864 -5.0942,0.4706 -8.1094,0.7929 -6.0305,0.6458 -12.4385,1.4198 -14.9453,1.9024 -0.6055,0.1162 -1.1748,0.263 -1.7168,0.4472 v 0 c -1.8986,0.6458 -3.4517,1.9005 -4.3183,3.6953 -0.8668,1.7949 -1.1525,3.9873 -1.1973,6.8282 -0.034,1.8788 -0.1349,3.0821 0.5742,4.3301 0.3546,0.6239 0.9279,1.0994 1.4903,1.4023 0.5617,0.3027 1.1367,0.4991 1.8242,0.7305 1.9245,0.6457 5.0538,1.0635 7.584,1.1015 10.0883,0.1554 18.5506,-5.1829 22.7461,-14.3496 0.5916,-1.2922 1.0665,-2.4884 1.375,-3.4414 0.1542,-0.4766 0.2683,-0.8795 0.3339,-1.2891 0.035,-0.2049 0.07,-0.4018 0.035,-0.7207 -0.011,-0.1588 -0.036,-0.3557 -0.1699,-0.6308 -0.1289,-0.2763 -0.4258,-0.6657 -0.8828,-0.8613 -0.4351,-0.1853 -0.5144,-0.1373 -0.6445,-0.1465 -0.1301,-0.01 -0.2429,-0.012 -0.3672,-0.012 z m -18.1387,21.7363 c -0.2647,-0.01 -0.5138,0.01 -0.7832,0.045 -0.5376,0.058 -1.152,0.1799 -1.8535,0.3399 -1.4029,0.32 -3.1335,0.8198 -4.918,1.4336 l -6.3066,2.168 a 1.6392339,1.6392339 0 0 0 -1.0469,1.9804 l 1.2578,4.5918 c 0.6124,2.2386 0.7016,3.4783 1.9024,4.6055 0.6009,0.564 1.5801,0.7692 2.2539,0.6875 0.6734,-0.081 1.2134,-0.2866 1.8691,-0.5156 3.0796,-1.0798 5.8909,-3.9408 7.8867,-6.793 0.9981,-1.426 1.767,-2.8359 2.1348,-4.2109 0.1842,-0.6873 0.2858,-1.3805 0.127,-2.1387 -0.1589,-0.7586 -0.7238,-1.5889 -1.5059,-1.9707 -0.4892,-0.2394 -0.754,-0.2169 -1.0176,-0.2227 z m -90.5332,0.031 a 1.6392339,1.6392339 0 0 0 -0.6406,0.1074 v 0 a 1.6392339,1.6392339 0 0 0 -1.0274,1.2812 l -0.4414,2.9023 c -0.3096,2.0292 -0.2363,5.9953 0.047,9.5293 0.4098,5.0766 1.1252,7.5 3.0527,10.0352 1.8171,2.3901 5.2835,4.608 9.1563,6.5391 3.8727,1.9311 8.0555,3.4575 11.3965,3.7754 3.0396,0.2889 4.9339,0.4099 6.4863,-0.059 0.3879,-0.1175 0.7849,-0.2817 1.168,-0.627 0.3822,-0.3442 0.7011,-0.9382 0.7402,-1.5 0.081,-1.1235 -0.4716,-1.7475 -1,-2.3477 -4.7291,-5.3667 -8.2676,-10.6054 -8.9863,-12.6953 -1.036,-3.0121 -3.8649,-5.5603 -10.3535,-10.2949 l -8.6817,-6.334 a 1.6392339,1.6392339 0 0 0 -0.916,-0.3144 z m 34.6797,9.9355 c -0.5459,0.013 -1.1172,0.063 -1.7461,0.1153 -2.3659,0.191 -5.6754,0.3695 -7.2051,0.3925 -0.9439,0.012 -1.7683,0.1312 -2.5234,0.4512 v 0 c -0.6596,0.2797 -1.2848,0.7582 -1.6563,1.4297 -0.3718,0.6711 -0.4397,1.4495 -0.3281,2.1289 0.2245,1.3587 1.0011,2.5202 2.1035,3.7949 2.2044,2.5491 5.9361,5.4508 10.9356,8.3906 l 5.6172,3.3027 a 1.6392339,1.6392339 0 0 0 2.4531,-1.6543 l -0.959,-6.4902 c -0.7793,-5.2689 -1.037,-7.9596 -2.3047,-9.9238 -0.6342,-0.9819 -1.7325,-1.6506 -2.791,-1.836 -0.5289,-0.093 -1.0498,-0.1166 -1.5957,-0.1035 z"
         transform="matrix(0.08687223,0,0,0.08687223,-771.73694,163.81133)"
         id="path4841"
         inkscape:connector-curvature="0" />
    </g>
  </g>
</svg>
